<?xml version="1.0" encoding="utf-8"?>
<!-- Generator: Adobe Illustrator 27.0.0, SVG Export Plug-In . SVG Version: 6.00 Build 0)  -->
<svg version="1.1" xmlns="http://www.w3.org/2000/svg" xmlns:xlink="http://www.w3.org/1999/xlink" x="0px" y="0px"
	viewBox="0 0 512 512" style="enable-background:new 0 0 512 512;" xml:space="preserve">
<g id="ICONOS">
	<g>
		<circle style="fill:#5A09FF;" cx="256" cy="256" r="256"/>
		<g>
			<g>
				<g>
					<g>
						<path style="fill:#FFFFFF;" d="M338.94,336.74l-3.99-11.96c11.83-12.66,18.31-29.02,18.31-46.41
							c0-30.63-20.46-57.41-49.22-65.78l11.92-20.65c1.34-2.33,0.55-5.3-1.78-6.64l-4.21-2.43l4.86-8.42l4.21,2.43
							c2.32,1.34,5.3,0.55,6.64-1.78l9.73-16.85c1.34-2.32,0.55-5.3-1.78-6.64l-33.69-19.45c-2.33-1.34-5.3-0.55-6.64,1.78
							l-9.73,16.85c-1.34,2.32-0.55,5.3,1.78,6.64l4.21,2.43l-4.86,8.42l-4.21-2.43c-2.32-1.34-5.3-0.55-6.64,1.78l-36.48,63.18
							l-4.21-2.43c-2.32-1.34-5.3-0.55-6.64,1.78L216.79,247c-1.34,2.33-0.55,5.3,1.78,6.64l50.54,29.18
							c2.31,1.33,5.29,0.56,6.64-1.78l9.73-16.85c1.34-2.33,0.55-5.3-1.78-6.64l-4.21-2.43l3.59-6.22
							c16.96-1.22,31.28,12.4,31.28,29.47c0,5.2-1.34,10.17-3.9,14.58c-6.31-3.19-13.29-4.86-20.42-4.86
							c-10.19,0-20.08,3.44-28.06,9.73h-47.46c-9.27,0-17.6,5.15-21.75,13.44l-4.35,8.7c-0.75,1.51-0.67,3.3,0.21,4.73
							c0.89,1.43,2.45,2.31,4.14,2.31h51.61l-3.24,9.73h-67.83v0c-8.05,0-14.59,6.55-14.59,14.59v24.32c0,2.69,2.18,4.86,4.86,4.86
							H348.4c2.69,0,4.86-2.18,4.86-4.86v-24.32C353.27,343.36,346.86,336.88,338.94,336.74z M299.29,143l25.27,14.59l-4.86,8.42
							c-5.63-3.25-18.71-10.8-25.27-14.59L299.29,143z M297.99,164.71l8.42,4.86l-4.86,8.42l-8.42-4.86L297.99,164.71z
							M269.76,271.97l-42.12-24.32l4.86-8.42c4.47,2.58,31.99,18.47,37.9,21.88c0,0,0,0,0,0c0,0,0,0,0,0l4.21,2.43L269.76,271.97z
							M271.07,250.25l-25.27-14.59l34.04-58.97c9.9,5.71,15.7,9.07,18.92,10.92c-0.73-0.42-1.31-0.76-1.38-0.8
							c0.12,0.07,2.02,1.17,7.73,4.46C300.08,199.99,275.33,242.88,271.07,250.25z M288.65,239.26l10.37-17.96
							c26,6.33,44.53,29.8,44.53,57.07c0,13.2-4.36,25.71-12.4,35.93c-2.9-6.21-7.19-11.71-12.51-16.05
							c3.58-5.99,5.46-12.77,5.46-19.89C324.09,257.89,308.48,241.04,288.65,239.26z M290.04,297.82c15.51,0,29,9.99,33.79,24.35
							l4.85,14.55H251.4l4.85-14.55C261.14,307.51,274.86,297.82,290.04,297.82z M200.64,317.28c0.34-0.39,3.43-9.78,13.88-9.78
							h38.3c-2.1,3.01-3.83,6.33-5.14,9.78H200.64z M343.54,370.77H168.46v-19.45c0-2.68,2.18-4.86,4.86-4.86c4,0,157.09,0,165.36,0
							c2.68,0,4.86,2.18,4.86,4.86V370.77z"/>
						<path style="fill:#FFFFFF;" d="M348.4,381H163.6c-2.96,0-5.36-2.41-5.36-5.36v-24.32c0-8.32,6.77-15.09,15.09-15.09h67.47
							l2.91-8.73h-50.92c-1.87,0-3.58-0.95-4.56-2.54c-0.98-1.59-1.07-3.54-0.24-5.22l4.35-8.7c4.23-8.46,12.74-13.72,22.2-13.72
							h47.29c8.03-6.27,18.05-9.73,28.23-9.73c6.98,0,13.96,1.62,20.22,4.7c2.39-4.27,3.6-8.96,3.6-13.93
							c0-8.1-3.38-15.89-9.28-21.38c-5.81-5.41-13.33-8.11-21.2-7.61l-3.21,5.56l3.78,2.18c1.24,0.72,2.13,1.87,2.5,3.26
							c0.37,1.38,0.18,2.83-0.54,4.07l-9.73,16.85c-0.72,1.24-1.88,2.13-3.27,2.5c-1.38,0.37-2.82,0.18-4.06-0.54l-50.54-29.18
							c-1.24-0.72-2.13-1.87-2.5-3.26c-0.37-1.38-0.18-2.83,0.54-4.07l9.73-16.85c0.72-1.24,1.87-2.13,3.26-2.5
							c1.38-0.37,2.83-0.18,4.07,0.54l3.78,2.18l36.23-62.75c0.71-1.24,1.87-2.13,3.26-2.5c1.38-0.37,2.83-0.18,4.07,0.54l3.78,2.18
							l4.37-7.56l-3.78-2.18c-2.56-1.48-3.44-4.76-1.96-7.32l9.73-16.85c1.48-2.56,4.76-3.44,7.32-1.96l33.69,19.45
							c1.24,0.71,2.13,1.87,2.5,3.26c0.37,1.38,0.18,2.83-0.54,4.07l-9.73,16.85c-1.48,2.56-4.76,3.44-7.32,1.96l-3.78-2.18
							l-4.37,7.56l3.78,2.18c2.56,1.48,3.44,4.76,1.96,7.32l-11.61,20.1c28.87,8.7,48.97,35.78,48.97,66.08
							c0,17.32-6.48,33.84-18.24,46.53l3.78,11.35c8.01,0.33,14.46,7.02,14.46,15.07v24.32C353.77,378.59,351.36,381,348.4,381z
							 M173.32,337.23c-7.77,0-14.09,6.32-14.09,14.09v24.32c0,2.41,1.96,4.37,4.37,4.37H348.4c2.41,0,4.37-1.96,4.37-4.37v-24.32
							c0-7.63-6.21-13.95-13.84-14.09l-0.35-0.01l-4.19-12.57l0.2-0.22c11.72-12.54,18.18-28.9,18.18-46.07
							c0-30.08-20.09-56.93-48.86-65.3l-0.61-0.18l12.24-21.2c1.2-2.08,0.49-4.76-1.6-5.96l-4.64-2.68l5.36-9.29l4.64,2.68
							c2.09,1.2,4.76,0.48,5.96-1.6l9.73-16.85c0.58-1.01,0.74-2.19,0.44-3.31c-0.3-1.13-1.02-2.07-2.03-2.65l-33.69-19.45
							c-2.08-1.2-4.76-0.49-5.96,1.6l-9.73,16.85c-1.2,2.08-0.49,4.76,1.6,5.96l4.64,2.68l-5.36,9.29l-4.64-2.68
							c-1.01-0.58-2.19-0.73-3.31-0.44c-1.13,0.3-2.07,1.02-2.65,2.03l-36.72,63.61l-4.64-2.68c-1.01-0.58-2.19-0.73-3.31-0.44
							c-1.13,0.3-2.07,1.02-2.65,2.03l-9.73,16.85c-0.58,1.01-0.74,2.19-0.44,3.31c0.3,1.13,1.02,2.07,2.03,2.65l50.54,29.18
							c1.01,0.58,2.18,0.74,3.3,0.44c1.13-0.3,2.07-1.02,2.66-2.04l9.73-16.85c0.58-1.01,0.74-2.19,0.44-3.31
							c-0.3-1.13-1.02-2.07-2.03-2.65l-4.64-2.68l3.97-6.88l0.26-0.02c8.25-0.59,16.13,2.2,22.21,7.86c6.1,5.68,9.6,13.74,9.6,22.11
							c0,5.3-1.33,10.29-3.97,14.83l-0.24,0.41l-0.42-0.21c-6.22-3.14-13.21-4.8-20.19-4.8c-10.01,0-19.87,3.42-27.75,9.62
							l-0.14,0.11h-47.63c-9.08,0-17.24,5.05-21.31,13.17l-4.35,8.7c-0.68,1.36-0.61,2.95,0.19,4.25c0.8,1.3,2.19,2.07,3.71,2.07
							h52.31l-3.57,10.72H173.32z M344.04,371.27H167.96v-19.95c0-2.96,2.4-5.36,5.36-5.36h165.36c2.96,0,5.36,2.41,5.36,5.36
							V371.27z M168.96,370.28h174.09v-18.96c0-2.41-1.96-4.37-4.37-4.37H173.32c-2.41,0-4.37,1.96-4.37,4.37V370.28z
							 M329.38,337.23h-78.67l5.07-15.21c4.93-14.77,18.7-24.7,34.27-24.7c15.57,0,29.34,9.92,34.26,24.69L329.38,337.23z
							 M252.09,336.23H328l-4.63-13.9c-4.79-14.36-18.18-24.01-33.32-24.01c-15.14,0-28.53,9.65-33.32,24.02L252.09,336.23z
							 M248.03,317.78h-48.46l0.68-0.8c0.03-0.06,0.08-0.17,0.16-0.33c3.71-7.97,9.73-9.64,14.12-9.64h39.25l-0.54,0.78
							c-2.05,2.95-3.76,6.2-5.09,9.67L248.03,317.78z M201.44,316.78h45.9c1.22-3.12,2.74-6.07,4.54-8.78h-37.36
							C210.47,308,204.94,309.53,201.44,316.78z M331.03,315.25l-0.34-0.73c-2.85-6.12-7.13-11.61-12.37-15.87l-0.33-0.27l0.22-0.37
							c3.52-5.89,5.39-12.68,5.39-19.63c0-19.9-15.37-36.86-34.99-38.62l-0.78-0.07l10.94-18.95l0.36,0.09
							c26.44,6.43,44.91,30.1,44.91,57.55c0,13.31-4.32,25.84-12.51,36.24L331.03,315.25z M319.28,298.14
							c5,4.15,9.12,9.39,11.97,15.22c7.72-10.1,11.8-22.18,11.8-34.99c0-26.87-17.98-50.04-43.79-56.5l-9.79,16.96
							c19.76,2.17,35.12,19.39,35.12,39.53C324.59,285.36,322.75,292.18,319.28,298.14z M269.95,272.65l-42.98-24.81l5.36-9.29
							l42.98,24.81L269.95,272.65z M228.33,247.47l41.25,23.82l4.37-7.56l-41.25-23.82L228.33,247.47z M271.25,250.93l-26.13-15.09
							l34.54-59.83l18.26,10.54c0.19,0.11,0.46,0.27,0.78,0.45c1.11,0.64,3.17,1.83,6.66,3.85l0.43,0.25L271.25,250.93z
							 M246.48,235.48l24.41,14.09l33.55-58.11c-2.94-1.7-4.81-2.78-5.92-3.42l-0.58-0.34c-0.5-0.29-0.74-0.43-0.79-0.46
							c0,0,0,0,0,0c0,0,0,0,0,0v0l-17.11-9.88L246.48,235.48z M301.73,178.68l-9.29-5.36l5.36-9.29l9.29,5.36L301.73,178.68z
							 M293.81,172.95l7.56,4.37l4.37-7.56l-7.56-4.37L293.81,172.95z M319.88,166.7l-26.13-15.09l5.36-9.28l26.13,15.09
							L319.88,166.7z M295.11,151.24l24.41,14.09l4.37-7.56l-24.41-14.09L295.11,151.24z"/>
					</g>
					<g>
						<path style="fill:#FFFFFF;" d="M299.35,187.96c0.29,0.17,0.56,0.32,0.81,0.47C299.89,188.27,299.62,188.11,299.35,187.96z"/>
						<polygon style="fill:#FFFFFF;" points="299.91,188.86 299.91,188.86 299.1,188.39 299.6,187.53 300.41,188 						"/>
					</g>
					<g>
						<path style="fill:#FFFFFF;" d="M299.32,187.94c0.01,0.01,0.02,0.01,0.03,0.02C299.34,187.95,299.33,187.95,299.32,187.94z"/>
						<polygon style="fill:#FFFFFF;" points="299.08,188.38 299.56,187.51 299.62,187.54 						"/>
					</g>
					<g>
						<path style="fill:#FFFFFF;" d="M298.76,187.62c0.02,0.01,0.03,0.02,0.05,0.03C298.79,187.64,298.77,187.63,298.76,187.62z"/>
						<polygon style="fill:#FFFFFF;" points="298.56,188.08 299,187.19 299.03,187.2 						"/>
					</g>
					<g>
						<path style="fill:#FFFFFF;" d="M298.81,187.65c0.18,0.1,0.35,0.2,0.51,0.3C299.14,187.84,298.97,187.74,298.81,187.65z"/>
						<polygon style="fill:#FFFFFF;" points="299.07,188.37 298.56,188.08 299.06,187.22 299.57,187.51 						"/>
					</g>
					<g>
						<path style="fill:#FFFFFF;" d="M300.16,188.43c0.05,0.03,0.09,0.05,0.14,0.08C300.25,188.48,300.2,188.45,300.16,188.43z"/>
						<polygon style="fill:#FFFFFF;" points="300.05,188.94 299.91,188.86 300.4,187.99 300.54,188.07 						"/>
					</g>
					<g>
						<path style="fill:#FFFFFF;" d="M302.18,189.59c0.02,0.01,0.03,0.02,0.04,0.02C302.21,189.61,302.19,189.6,302.18,189.59z"/>
						<polygon style="fill:#FFFFFF;" points="301.97,190.05 302.03,189.92 301.95,190.04 302.44,189.17 302.39,189.27 
							302.45,189.18 						"/>
					</g>
					<g>
						<path style="fill:#FFFFFF;" d="M302.05,189.52c0.05,0.03,0.09,0.05,0.12,0.07C302.14,189.57,302.1,189.55,302.05,189.52z"/>
						<polygon style="fill:#FFFFFF;" points="301.93,190.03 301.81,189.95 302.3,189.09 302.42,189.16 						"/>
					</g>
					<g>
						<path style="fill:#FFFFFF;" d="M302.22,189.62C302.26,189.64,302.26,189.64,302.22,189.62L302.22,189.62z"/>
						<path style="fill:#FFFFFF;" d="M302.25,190.21l-0.28-0.16l0.25-0.43l-0.4-0.23l0.4,0.23l0.25-0.43l0.25,0.14l0.04,0.6
							L302.25,190.21z M302.47,189.19l-0.25,0.43L302.47,189.19z"/>
					</g>
					<g>
						<path style="fill:#FFFFFF;" d="M301.37,189.13c0.04,0.02,0.07,0.04,0.11,0.06C301.44,189.17,301.41,189.15,301.37,189.13z"/>
						<path style="fill:#FFFFFF;" d="M301.22,189.62l0.01-0.03L301.22,189.62l-0.1-0.06l0.49-0.87l0.11,0.07L301.22,189.62z
							 M301.59,188.76l-0.22,0.36l0.13-0.17L301.59,188.76z"/>
					</g>
					<g>
						<path style="fill:#FFFFFF;" d="M301.48,189.19c0.24,0.14,0.44,0.25,0.58,0.33C301.93,189.45,301.74,189.34,301.48,189.19z"/>
						
							<rect x="301.27" y="189.02" transform="matrix(0.4996 -0.8663 0.8663 0.4996 -13.0259 356.161)" style="fill:#FFFFFF;" width="1" height="0.67"/>
					</g>
					<g>
						<path style="fill:#FFFFFF;" d="M301.22,189.04c0.05,0.03,0.11,0.06,0.16,0.09C301.32,189.1,301.27,189.07,301.22,189.04z"/>
						<polygon style="fill:#FFFFFF;" points="301.12,189.56 300.97,189.47 301.46,188.6 301.63,188.7 						"/>
					</g>
					<g>
						<path style="fill:#FFFFFF;" d="M300.29,188.5c0.36,0.21,0.67,0.39,0.92,0.53C300.94,188.88,300.62,188.69,300.29,188.5z"/>
						
							<rect x="300.26" y="188.24" transform="matrix(0.5004 -0.8658 0.8658 0.5004 -13.1714 354.7176)" style="fill:#FFFFFF;" width="1" height="1.07"/>
					</g>
				</g>
			</g>
		</g>
	</g>
</g>
<g id="REGLAS_Y_TAMAÑOS">
</g>
</svg>
