<?xml version="1.0" encoding="utf-8"?>
<!-- Generator: Adobe Illustrator 27.0.0, SVG Export Plug-In . SVG Version: 6.00 Build 0)  -->
<svg version="1.1" xmlns="http://www.w3.org/2000/svg" xmlns:xlink="http://www.w3.org/1999/xlink" x="0px" y="0px"
	viewBox="0 0 512 512" style="enable-background:new 0 0 512 512;" xml:space="preserve">
<g id="ICONOS">
	<g>
		<circle style="fill:#0065FF;" cx="256" cy="256" r="256"/>
		<g>
			<path style="fill:#FFFFFF;" d="M258.23,158.69c-0.85-3.34-4.27-5.36-7.6-4.51c-10.79,2.75-19.76,9.52-25.26,19.06
				c-0.83,1.44-1.06,3.13-0.62,4.74c0.43,1.61,1.47,2.96,2.91,3.79c0.95,0.55,2.03,0.84,3.12,0.84c2.23,0,4.3-1.2,5.42-3.12
				c3.81-6.6,10.04-11.29,17.53-13.2c1.62-0.41,2.98-1.43,3.83-2.87S258.64,160.31,258.23,158.69L258.23,158.69z"/>
			<path style="fill:#FFFFFF;" d="M267.64,153.47c-0.09-0.02-0.18-0.03-0.27-0.04c-3.39-0.53-6.58,1.82-7.11,5.22
				c-0.53,3.39,1.81,6.58,5.18,7.13c0.35,0.06,0.72,0.09,1.08,0.09c3.02,0,5.6-2.16,6.14-5.13
				C273.28,157.35,271.03,154.09,267.64,153.47z"/>
			<path style="fill:#FFFFFF;" d="M355.33,277.23c-3.55-1.01-7.45-1.93-11.5-2.7c-0.28-0.07-0.57-0.13-0.85-0.16
				c-12.02-2.24-25.94-3.42-40.25-3.42c-6.95,0-13.84,0.28-20.53,0.83l28.46-49.29c7.68-13.3,9.7-28.84,5.7-43.76
				c-4-14.92-13.52-27.37-26.82-35.05c-13.33-7.69-28.87-9.73-43.77-5.74c-14.9,3.99-27.34,13.53-35.04,26.85l-72.03,124.75
				c-7.68,13.3-9.7,28.84-5.7,43.76c4,14.92,13.52,27.37,26.82,35.05c8.71,5.03,18.64,7.69,28.7,7.69c4.24,0,8.51-0.47,12.67-1.4
				c10.65-2.38,20.29-7.61,27.98-15.18c4.18,4.08,11.2,7.54,20.91,10.32c14.15,4.04,32.84,6.27,52.64,6.27
				c19.8,0,38.5-2.23,52.64-6.27c17.01-4.86,25.63-11.77,25.63-20.56l0-51.45C381,289.01,372.36,282.1,355.33,277.23z
				M263.25,308.62c-3.47-0.68-6.73-1.46-9.69-2.31c-14.15-4.04-16.35-8-16.58-8.53c0.23-0.53,2.43-4.49,16.58-8.53
				c13.09-3.74,30.55-5.8,49.17-5.8c5.51,0,10.98,0.19,16.3,0.55L263.25,308.62z M236.95,313.35c3.61,1.83,8.02,3.5,13.17,4.98
				c3.75,1.07,7.93,2.04,12.33,2.85c0.26,0.07,0.52,0.11,0.79,0.15c11.85,2.15,25.5,3.28,39.49,3.28c19.75,0,38.43-2.23,52.6-6.28
				c5.15-1.47,9.57-3.14,13.17-4.98v35.83c-0.09,0.25-1.85,4.38-16.56,8.59c-13.06,3.73-30.54,5.79-49.21,5.79
				s-36.15-2.05-49.21-5.79c-15.08-4.31-16.55-8.54-16.56-8.54V313.35z M351.9,306.31c-13.09,3.74-30.55,5.8-49.17,5.8
				c-5.19,0-10.33-0.16-15.35-0.48l55.58-24.53c3.22,0.65,6.22,1.38,8.94,2.15c14.51,4.14,16.46,8.2,16.59,8.51
				C368.33,298.16,366.31,302.19,351.9,306.31z M249.32,277.46c-16.45,4.84-24.82,11.64-24.87,20.24l0,48.28
				c-13.58,17.58-39.13,22.67-58.38,11.56c-10.41-6.01-17.86-15.76-21-27.46c-3.13-11.7-1.55-23.87,4.46-34.28l32.89-56.97
				L249.32,277.46z M266.95,273.21l-78.28-45.2l32.89-56.96c12.46-21.58,40.16-29,61.74-16.54c10.41,6.01,17.86,15.76,21,27.46
				c3.13,11.7,1.55,23.87-4.45,34.28L266.95,273.21z"/>
		</g>
	</g>
</g>
<g id="REGLAS_Y_TAMAÑOS">
</g>
</svg>
