<?xml version="1.0" encoding="utf-8"?>
<!-- Generator: Adobe Illustrator 27.0.0, SVG Export Plug-In . SVG Version: 6.00 Build 0)  -->
<svg version="1.1" xmlns="http://www.w3.org/2000/svg" xmlns:xlink="http://www.w3.org/1999/xlink" x="0px" y="0px"
	viewBox="0 0 512 512" style="enable-background:new 0 0 512 512;" xml:space="preserve">
<g id="ICONOS">
	<g>
		<circle style="fill:#7900FF;" cx="256" cy="256" r="256"/>
		<g>
			<path style="fill-rule:evenodd;clip-rule:evenodd;fill:#FFFFFF;" d="M378.51,341.16l-7.81-125
				C369.46,196.4,353.07,181,333.27,181H331v-12.5c0-20.71-16.79-37.5-37.5-37.5h-75c-20.71,0-37.5,16.79-37.5,37.5V181h-2.27
				c-19.8,0-36.19,15.4-37.43,35.16l-7.81,125c-1.35,21.59,15.8,39.84,37.43,39.84h170.17C362.71,381,379.86,362.75,378.51,341.16z
				M218.5,181v-6.25c0-3.45,2.8-6.25,6.25-6.25h62.5c3.45,0,6.25,2.8,6.25,6.25V181H218.5z M193.5,168.5c0-13.81,11.19-25,25-25h75
				c13.81,0,25,11.19,25,25V181H306v-6.25c0-10.36-8.4-18.75-18.75-18.75h-62.5c-10.36,0-18.75,8.39-18.75,18.75V181h-12.5V168.5z
				M318.5,193.5H331v6.25c0,3.45-2.8,6.25-6.25,6.25c-3.45,0-6.25-2.8-6.25-6.25V193.5z M181,193.5h12.5v6.25
				c0,3.45-2.8,6.25-6.25,6.25c-3.45,0-6.25-2.8-6.25-6.25V193.5z M341.08,368.5H170.92c-14.42,0-25.85-12.17-24.95-26.56l7.81-125
				c0.6-9.55,6.5-17.56,14.72-21.25v4.06c0,10.36,8.39,18.75,18.75,18.75c10.36,0,18.75-8.39,18.75-18.75v-6.25h100v6.25
				c0,10.36,8.39,18.75,18.75,18.75s18.75-8.39,18.75-18.75v-4.06c8.23,3.69,14.13,11.71,14.72,21.25l7.81,125
				C366.93,356.33,355.5,368.5,341.08,368.5z"/>
			<path style="fill-rule:evenodd;clip-rule:evenodd;fill:#FFFFFF;" d="M293.5,256H281v-12.5c0-6.9-5.6-12.5-12.5-12.5h-25
				c-6.9,0-12.5,5.6-12.5,12.5V256h-12.5c-6.9,0-12.5,5.6-12.5,12.5v25c0,6.9,5.6,12.5,12.5,12.5H231v12.5c0,6.9,5.6,12.5,12.5,12.5
				h25c6.9,0,12.5-5.6,12.5-12.5V306h12.5c6.9,0,12.5-5.6,12.5-12.5v-25C306,261.6,300.4,256,293.5,256z M293.5,293.5h-25v25h-25
				v-25h-25v-25h25v-25h25v25h25V293.5z"/>
		</g>
	</g>
</g>
<g id="REGLAS_Y_TAMAÑOS">
</g>
</svg>
