<?xml version="1.0" encoding="utf-8"?>
<!-- Generator: Adobe Illustrator 26.5.0, SVG Export Plug-In . SVG Version: 6.00 Build 0)  -->
<svg version="1.1" id="Capa_1" xmlns="http://www.w3.org/2000/svg" xmlns:xlink="http://www.w3.org/1999/xlink" x="0px" y="0px"
	 viewBox="0 0 512 512" style="enable-background:new 0 0 512 512;" xml:space="preserve">
<g>
	<path style="fill:#4F565F;" d="M488.74,232.74L488.74,232.74h-48.16c-10.74-84.23-77.06-150.56-161.29-161.29V23.28
		c-0.01-12.85-10.43-23.27-23.28-23.27c-12.85,0-23.27,10.42-23.27,23.27v48.16C148.5,82.18,82.18,148.5,71.44,232.74H23.28
		c-12.85,0-23.27,10.42-23.27,23.27s10.42,23.27,23.27,23.27h48.16c10.74,84.23,77.06,150.56,161.29,161.29v48.16
		c0,12.85,10.42,23.27,23.27,23.27s23.27-10.42,23.27-23.27v-48.16c84.23-10.74,150.56-77.06,161.29-161.29h48.16
		c12.85,0,23.27-10.42,23.27-23.27C512.01,243.15,501.59,232.74,488.74,232.74z M256.01,395.65c-77.12,0-139.64-62.52-139.64-139.64
		s62.52-139.64,139.64-139.64s139.64,62.52,139.64,139.64C395.56,333.08,333.09,395.55,256.01,395.65z"/>
	<path style="fill:#4F565F;" d="M256.01,162.92L256.01,162.92c-51.41,0-93.09,41.68-93.09,93.09s41.68,93.09,93.09,93.09
		s93.09-41.68,93.09-93.09C349.04,204.62,307.4,162.98,256.01,162.92z M256.01,302.55c-25.71,0-46.55-20.84-46.55-46.55
		c0-25.71,20.84-46.55,46.55-46.55s46.55,20.84,46.55,46.55C302.53,281.7,281.7,302.52,256.01,302.55z"/>
</g>
</svg>
