<?xml version="1.0" encoding="utf-8"?>
<!-- Generator: Adobe Illustrator 26.5.0, SVG Export Plug-In . SVG Version: 6.00 Build 0)  -->
<svg version="1.1" id="Capa_1" xmlns="http://www.w3.org/2000/svg" xmlns:xlink="http://www.w3.org/1999/xlink" x="0px" y="0px"
	 viewBox="0 0 512 512" style="enable-background:new 0 0 512 512;" xml:space="preserve">
<g>
	<path style="fill:#7900FF;" d="M256,0C114.62,0,0,114.62,0,256s114.62,256,256,256s256-114.62,256-256S397.38,0,256,0z
		 M306.82,380.17c-3.84,5.26-8.47,9.89-13.73,13.73c-28.07,20.49-67.43,14.34-87.92-13.73c-49.06-67.02-73.94-117.3-73.94-149.42
		C131.32,161.88,187.13,106.08,256,106c68.87,0.08,124.68,55.88,124.76,124.75C380.76,262.87,355.89,313.15,306.82,380.17z"/>
	<circle style="fill:#7900FF;" cx="256" cy="230.47" r="50"/>
</g>
</svg>
