<?xml version="1.0" encoding="utf-8"?>
<!-- Generator: Adobe Illustrator 26.5.0, SVG Export Plug-In . SVG Version: 6.00 Build 0)  -->
<svg version="1.1" id="Capa_1" xmlns="http://www.w3.org/2000/svg" xmlns:xlink="http://www.w3.org/1999/xlink" x="0px" y="0px"
	 viewBox="0 0 512 512" style="enable-background:new 0 0 512 512;" xml:space="preserve">
<g>
	<circle style="fill:#CCCCCC;" cx="256" cy="256" r="85.3"/>
	<path style="fill:#CCCCCC;" d="M496.36,200.96C463.28,147.09,388.05,56.71,256,56.71S48.72,147.09,15.64,200.96
		c-20.85,33.73-20.85,76.35,0,110.08C48.72,364.91,123.95,455.29,256,455.29s207.28-90.38,240.36-144.25
		C517.21,277.31,517.21,234.69,496.36,200.96z M256,383.95c-70.67,0-127.95-57.29-127.95-127.95S185.33,128.05,256,128.05
		S383.95,185.33,383.95,256C383.88,326.64,326.64,383.88,256,383.95z"/>
</g>
</svg>
