<?xml version="1.0" encoding="utf-8"?>
<!-- Generator: Adobe Illustrator 26.5.0, SVG Export Plug-In . SVG Version: 6.00 Build 0)  -->
<svg version="1.1" id="Capa_1" xmlns="http://www.w3.org/2000/svg" xmlns:xlink="http://www.w3.org/1999/xlink" x="0px" y="0px"
	 viewBox="0 0 512 512" style="enable-background:new 0 0 512 512;" xml:space="preserve">
<g>
	<path style="fill:#FBBB00;" d="M113.47,309.41l-17.82,66.53l-65.14,1.38C11.04,341.21,0,299.9,0,256
		c0-42.45,10.32-82.48,28.62-117.73h0.01l57.99,10.63l25.4,57.64c-5.32,15.5-8.22,32.14-8.22,49.46
		C103.82,274.79,107.22,292.8,113.47,309.41z"/>
	<path style="fill:#518EF8;" d="M507.53,208.18c2.94,15.49,4.47,31.48,4.47,47.82c0,18.33-1.93,36.21-5.6,53.45
		c-12.46,58.68-45.02,109.92-90.13,146.19l-0.01-0.01l-73.04-3.73l-10.34-64.54c29.93-17.55,53.32-45.02,65.65-77.91H261.63V208.18
		h138.89H507.53L507.53,208.18z"/>
	<path style="fill:#28B446;" d="M416.25,455.62l0.01,0.01C372.4,490.9,316.67,512,256,512c-97.49,0-182.25-54.49-225.49-134.68
		l82.96-67.91c21.62,57.7,77.28,98.77,142.53,98.77c28.05,0,54.32-7.58,76.87-20.82L416.25,455.62z"/>
	<path style="fill:#F14336;" d="M419.4,58.94l-82.93,67.9c-23.33-14.59-50.92-23.01-80.47-23.01
		c-66.73,0-123.43,42.96-143.96,102.72l-83.4-68.28h-0.01C71.23,56.12,157.06,0,256,0C318.11,0,375.07,22.13,419.4,58.94z"/>
</g>
</svg>
