<?xml version="1.0" encoding="utf-8"?>
<!-- Generator: Adobe Illustrator 27.0.0, SVG Export Plug-In . SVG Version: 6.00 Build 0)  -->
<svg version="1.1" xmlns="http://www.w3.org/2000/svg" xmlns:xlink="http://www.w3.org/1999/xlink" x="0px" y="0px"
	viewBox="0 0 512 512" style="enable-background:new 0 0 512 512;" xml:space="preserve">
<g id="ICONOS">
</g>
<g id="REGLAS_Y_TAMAÑOS">
	<path style="fill:#4F565F;" d="M256,0C114.84,0,0,114.84,0,256s114.84,256,256,256s256-114.84,256-256S397.16,0,256,0z M403,212.76
		L242.17,373.59c-6.84,6.84-15.93,10.6-25.6,10.6s-18.76-3.76-25.6-10.6L109,291.62c-6.84-6.84-10.61-15.93-10.61-25.6
		c0-9.67,3.77-18.76,10.61-25.6c6.84-6.84,15.93-10.61,25.6-10.61c9.67,0,18.76,3.77,25.6,10.61l56.37,56.36L351.8,161.56
		c6.84-6.84,15.93-10.6,25.6-10.6c9.67,0,18.76,3.76,25.6,10.6C417.11,175.68,417.11,198.64,403,212.76z"/>
</g>
</svg>
