<?xml version="1.0" encoding="utf-8"?>
<!-- Generator: Adobe Illustrator 26.5.0, SVG Export Plug-In . SVG Version: 6.00 Build 0)  -->
<svg version="1.1" id="Capa_1" xmlns="http://www.w3.org/2000/svg" xmlns:xlink="http://www.w3.org/1999/xlink" x="0px" y="0px"
	 viewBox="0 0 512 512" style="enable-background:new 0 0 512 512;" xml:space="preserve">
<path style="fill:#6600FF;" d="M373.29,31.07c-48.88,0.76-93.61,27.6-117.29,70.37c-23.67-42.77-68.41-69.61-117.29-70.37
	C59.03,34.53-2.9,101.7,0.11,181.41c0,96.96,102.06,202.86,187.66,274.66c39.45,33.15,97.03,33.15,136.48,0
	c85.6-71.8,187.66-177.7,187.66-274.66C514.9,101.7,452.97,34.53,373.29,31.07z M296.84,423.44c-23.6,19.87-58.08,19.87-81.67,0
	C105.6,331.51,42.75,243.31,42.75,181.41c-3.03-56.16,39.82-104.26,95.96-107.69c56.14,3.43,99,51.52,95.96,107.69
	c0,11.78,9.55,21.32,21.32,21.32s21.32-9.55,21.32-21.32c-3.03-56.16,39.82-104.26,95.96-107.69c56.14,3.43,99,51.52,95.96,107.69
	c0,61.91-62.84,150.1-172.41,241.95V423.44z"/>
</svg>
