<?xml version="1.0" encoding="utf-8"?>
<!-- Generator: Adobe Illustrator 26.5.0, SVG Export Plug-In . SVG Version: 6.00 Build 0)  -->
<svg version="1.1" id="Capa_1" xmlns="http://www.w3.org/2000/svg" xmlns:xlink="http://www.w3.org/1999/xlink" x="0px" y="0px"
	 viewBox="0 0 512 512" style="enable-background:new 0 0 512 512;" xml:space="preserve">
<path style="fill:#6600FF;" d="M321.94,341.33C462.1,340.57,512,266.33,512,202.67c-0.03-35.16-24.59-65.54-58.97-72.94
	c2.9-8.26,5.42-15.83,7.1-21.57c7.55-25.31,2.59-52.71-13.35-73.77C430.71,12.67,405.24-0.11,378.22,0H133.78
	c-27.03-0.11-52.49,12.66-68.57,34.39c-15.95,21.06-20.91,48.46-13.35,73.77c1.69,5.74,4.27,13.31,7.1,21.57
	C24.59,137.12,0.03,167.5,0,202.67c0,63.66,49.9,137.9,190.06,138.67c1.25,6.48,1.9,13.05,1.94,19.65v65.69
	c1.42,22.14-15.37,41.24-37.51,42.67c-1.72,0.11-3.44,0.11-5.16,0H128c-11.78,0-21.33,9.55-21.33,21.33S116.22,512,128,512h256
	c11.78,0,21.33-9.55,21.33-21.33s-9.55-21.33-21.33-21.33h-21.16c-22.16,1.49-41.33-15.26-42.83-37.42
	c-0.12-1.75-0.12-3.5-0.01-5.25v-65.71C320.05,354.37,320.7,347.8,321.94,341.33z M437.33,170.67c17.67,0,32,14.33,32,32
	c0,43.39-34.33,89.6-128.77,95.36c4.72-6.45,10.18-12.32,16.26-17.51c34.01-30.63,61.11-68.15,79.51-110.06
	C436.67,170.48,436.97,170.67,437.33,170.67z M42.67,202.67c0-17.67,14.33-32,32-32c0.36,0,0.66-0.19,1-0.21
	c18.4,41.91,45.5,79.42,79.51,110.06c6.08,5.19,11.53,11.07,16.26,17.51C76.99,292.27,42.67,246.06,42.67,202.67z M224.28,469.33
	c7.05-13.1,10.63-27.79,10.39-42.67v-65.69c0.15-43.44-18.82-84.76-51.86-112.96C139.42,206.56,108.28,153.97,92.78,96
	c-3.69-12.41-1.24-25.84,6.61-36.14c8.07-10.88,20.84-17.27,34.39-17.19h244.44c13.56-0.05,26.34,6.37,34.39,17.28
	c7.85,10.3,10.31,23.73,6.61,36.14c-15.52,57.94-46.66,110.5-90.03,151.94c-33.04,28.2-52.01,69.5-51.86,112.94v65.71
	c-0.24,14.88,3.34,29.57,10.39,42.67H224.28z"/>
</svg>
