<?xml version="1.0" encoding="utf-8"?>
<!-- Generator: Adobe Illustrator 26.5.0, SVG Export Plug-In . SVG Version: 6.00 Build 0)  -->
<svg version="1.1" id="Capa_1" xmlns="http://www.w3.org/2000/svg" xmlns:xlink="http://www.w3.org/1999/xlink" x="0px" y="0px"
	 viewBox="0 0 512 512" style="enable-background:new 0 0 512 512;" xml:space="preserve">
<g>
	<circle style="fill:#6600FF;" cx="117.33" cy="330.67" r="32"/>
	<path style="fill:#6600FF;" d="M405.33,64H106.67C47.79,64.07,0.07,111.79,0,170.67v170.67C0.07,400.21,47.79,447.93,106.67,448
		h298.67c58.88-0.07,106.6-47.79,106.67-106.67V170.67C511.93,111.79,464.21,64.07,405.33,64z M469.33,341.33
		c0,35.35-28.65,64-64,64H106.67c-35.35,0-64-28.65-64-64v-128h426.67V341.33z M42.67,170.67c0-35.35,28.65-64,64-64h298.67
		c35.35,0,64,28.65,64,64H42.67z"/>
</g>
</svg>
