<?xml version="1.0" encoding="utf-8"?>
<!-- Generator: Adobe Illustrator 26.5.0, SVG Export Plug-In . SVG Version: 6.00 Build 0)  -->
<svg version="1.1" id="Capa_1" xmlns="http://www.w3.org/2000/svg" xmlns:xlink="http://www.w3.org/1999/xlink" x="0px" y="0px"
	 viewBox="0 0 512 512" style="enable-background:new 0 0 512 512;" xml:space="preserve">
<g>
	<path style="fill:#6600FF;" d="M167.59,464.32H66.08c-10.12-0.02-18.35-8.26-18.37-18.35V66.05c0.02-10.12,8.26-18.35,18.35-18.37
		h101.53c13.14,0,23.84-10.69,23.84-23.84S180.73,0,167.59,0H66.08C29.71,0.04,0.08,29.68,0.03,66.06v379.89
		c0.04,36.37,29.68,66.01,66.06,66.05h101.5c13.14,0,23.84-10.69,23.84-23.84C191.43,475.02,180.73,464.32,167.59,464.32z"/>
	<path style="fill:#6600FF;" d="M485.56,192.24L470.31,177l0.05,0l-70.57-70.52c-4.5-4.5-10.49-6.98-16.86-6.98c0,0,0,0-0.01,0
		c-6.37,0-12.36,2.48-16.86,6.99c-9.29,9.3-9.29,24.42,0.01,33.72l91.32,91.3l-322.96,0.66c-13.16,0-23.86,10.69-23.86,23.84
		c0,13.14,10.69,23.84,23.84,23.84l324.28-0.59l-92.5,92.5c-8.85,9.63-8.27,24.66,1.31,33.58c9.08,8.45,23.28,8.48,32.39,0.09
		l85.64-85.64c17.03-17.03,26.41-39.67,26.41-63.76S502.59,209.27,485.56,192.24z"/>
</g>
</svg>
