<?xml version="1.0" encoding="utf-8"?>
<!-- Generator: Adobe Illustrator 26.5.0, SVG Export Plug-In . SVG Version: 6.00 Build 0)  -->
<svg version="1.1" id="Capa_1" xmlns="http://www.w3.org/2000/svg" xmlns:xlink="http://www.w3.org/1999/xlink" x="0px" y="0px"
	 viewBox="0 0 512 512" style="enable-background:new 0 0 512 512;" xml:space="preserve">
<path style="fill:#6600FF;" d="M448.24,265.06v-30.41c0-106.17-86.06-192.23-192.23-192.23S63.78,128.48,63.78,234.64v30.41
	c-53.98,23.77-78.47,86.8-54.7,140.78c17.01,38.64,55.2,63.63,97.42,63.76c23.59,0,42.72-19.13,42.72-42.72V298.72
	c0-23.59-19.13-42.72-42.72-42.72v-21.36c0-82.57,66.94-149.51,149.51-149.51s149.51,66.94,149.51,149.51V256
	c-23.59,0-42.72,19.13-42.72,42.72v128.15h-64.08c-11.8,0-21.36,9.56-21.36,21.36c0,11.8,9.56,21.36,21.36,21.36h106.79
	c58.98-0.18,106.65-48.13,106.47-107.11C511.87,320.25,486.88,282.07,448.24,265.06z M106.5,426.87
	c-35.39,0-64.08-28.69-64.08-64.08s28.69-64.08,64.08-64.08V426.87z M405.53,426.87V298.72c35.39,0,64.08,28.69,64.08,64.08
	S440.91,426.87,405.53,426.87z"/>
</svg>
