<?xml version="1.0" encoding="utf-8"?>
<!-- Generator: Adobe Illustrator 26.5.0, SVG Export Plug-In . SVG Version: 6.00 Build 0)  -->
<svg version="1.1" id="Capa_1" xmlns="http://www.w3.org/2000/svg" xmlns:xlink="http://www.w3.org/1999/xlink" x="0px" y="0px"
	 viewBox="0 0 512 512" style="enable-background:new 0 0 512 512;" xml:space="preserve">
<g>
	<path style="fill:#6600FF;" d="M256,170.67c-47.13,0-85.33,38.21-85.33,85.33s38.21,85.33,85.33,85.33s85.33-38.21,85.33-85.33
		S303.13,170.67,256,170.67z M256,298.67c-23.56,0-42.67-19.1-42.67-42.67s19.1-42.67,42.67-42.67s42.67,19.1,42.67,42.67
		S279.56,298.67,256,298.67z"/>
	<path style="fill:#6600FF;" d="M454.29,296.51l-0.02,0.02l-9.47-5.46c4.26-23.2,4.26-46.99,0-70.19l9.47-5.46
		c30.63-17.67,41.14-56.83,23.47-87.47c-17.67-30.63-56.83-41.14-87.47-23.47l-9.49,5.48C362.85,94.65,342.24,82.78,320,74.94V64
		c0-35.35-28.65-64-64-64s-64,28.65-64,64v10.94c-22.24,7.86-42.84,19.77-60.76,35.11l-9.54-5.53C91.07,86.86,51.91,97.37,34.24,128
		c-17.67,30.63-7.17,69.79,23.47,87.47l9.47,5.46c-4.26,23.2-4.26,46.99,0,70.19l-9.47,5.46c-30.63,17.67-41.14,56.83-23.47,87.47
		s56.83,41.14,87.47,23.47l9.49-5.48c17.94,15.32,38.55,27.2,60.8,35.03V448c0,35.35,28.65,64,64,64s64-28.65,64-64v-10.94
		c22.24-7.86,42.84-19.77,60.76-35.11l9.54,5.5c30.63,17.67,69.79,7.17,87.47-23.47C495.43,353.35,484.93,314.19,454.29,296.51z
		 M399.91,216v-0.02c7.22,26.18,7.22,53.82,0,80c-2.59,9.37,1.48,19.31,9.9,24.17l23.13,13.35c10.21,5.89,13.71,18.94,7.82,29.15
		c-5.89,10.21-18.94,13.71-29.15,7.82l-23.17-13.4c-8.43-4.88-19.1-3.43-25.92,3.52c-18.99,19.38-42.91,33.22-69.18,40
		c-9.43,2.43-16.03,10.93-16.02,20.67V448c0,11.78-9.55,21.33-21.33,21.33c-11.78,0-21.33-9.55-21.33-21.33v-26.71
		c0-9.74-6.59-18.25-16.02-20.67c-26.28-6.81-50.19-20.67-69.16-40.09c-6.82-6.95-17.49-8.4-25.92-3.52l-23.13,13.38
		c-10.16,5.96-23.23,2.55-29.19-7.62c-5.96-10.16-2.55-23.23,7.62-29.19c0.08-0.05,0.16-0.09,0.24-0.14l23.13-13.35
		c8.42-4.86,12.49-14.8,9.9-24.17c-7.22-26.18-7.22-53.82,0-80c2.55-9.35-1.53-19.24-9.92-24.09l-23.13-13.35
		c-10.21-5.89-13.71-18.94-7.82-29.15s18.94-13.71,29.15-7.82l23.17,13.4c8.41,4.89,19.06,3.48,25.9-3.43
		c18.99-19.38,42.91-33.22,69.18-40c9.46-2.43,16.07-10.99,16.02-20.76V64c0-11.78,9.55-21.33,21.33-21.33s21.33,9.55,21.33,21.33
		v26.71c0,9.74,6.59,18.25,16.02,20.67c26.28,6.81,50.21,20.67,69.18,40.09c6.82,6.95,17.49,8.4,25.92,3.52l23.13-13.38
		c10.16-5.96,23.23-2.55,29.19,7.61c5.96,10.16,2.55,23.23-7.61,29.19c-0.08,0.05-0.16,0.09-0.25,0.14l-23.13,13.35
		C401.42,196.77,397.36,206.66,399.91,216z"/>
</g>
</svg>
