<?xml version="1.0" encoding="utf-8"?>
<!-- Generator: Adobe Illustrator 26.5.0, SVG Export Plug-In . SVG Version: 6.00 Build 0)  -->
<svg version="1.1" id="Capa_1" xmlns="http://www.w3.org/2000/svg" xmlns:xlink="http://www.w3.org/1999/xlink" x="0px" y="0px"
	 viewBox="0 0 512 512" style="enable-background:new 0 0 512 512;" xml:space="preserve">
<g>
	<path style="fill:#6600FF;" d="M405.33,179.71v-30.38C405.33,66.86,338.47,0,256,0S106.67,66.86,106.67,149.33v30.38
		c-38.83,16.94-63.94,55.26-64,97.62v128c0.07,58.88,47.79,106.6,106.67,106.67h213.33c58.88-0.07,106.6-47.79,106.67-106.67v-128
		C469.28,234.97,444.16,196.66,405.33,179.71z M149.33,149.33c0-58.91,47.76-106.67,106.67-106.67s106.67,47.76,106.67,106.67v21.33
		H149.33V149.33z M426.67,405.33c0,35.35-28.65,64-64,64H149.33c-35.35,0-64-28.65-64-64v-128c0-35.35,28.65-64,64-64h213.33
		c35.35,0,64,28.65,64,64V405.33z"/>
	<path style="fill:#6600FF;" d="M256,298.67c-11.78,0-21.33,9.55-21.33,21.33v42.67c0,11.78,9.55,21.33,21.33,21.33
		s21.33-9.55,21.33-21.33V320C277.33,308.22,267.78,298.67,256,298.67z"/>
</g>
</svg>
