<?xml version="1.0" encoding="utf-8"?>
<!-- Generator: Adobe Illustrator 26.5.0, SVG Export Plug-In . SVG Version: 6.00 Build 0)  -->
<svg version="1.1" id="Capa_1" xmlns="http://www.w3.org/2000/svg" xmlns:xlink="http://www.w3.org/1999/xlink" x="0px" y="0px"
	 viewBox="0 0 512 512" style="enable-background:new 0 0 512 512;" xml:space="preserve">
<g>
	<path style="fill:#6600FF;" d="M421.92,68.73C377.92,24.72,318.23,0,256,0C126.4,0,21.34,105.07,21.34,234.67
		c0,62.53,24.96,122.47,69.33,166.52l84.12,77.67c44.96,44.01,116.79,44.2,161.98,0.43l85.16-78.7
		C513.57,308.95,513.57,160.37,421.92,68.73z M392.36,369.86l-84.99,78.53C278.35,475.73,233,475.56,204.18,448l-83.95-77.57
		c-74.98-74.98-74.98-196.55,0-271.53s196.55-74.98,271.53,0C427.77,134.91,448,183.75,448,234.67
		C448.19,285.34,428.17,333.99,392.36,369.86z"/>
	<path style="fill:#6600FF;" d="M356.48,163.48l-64-44.39c-21.95-15.17-51.01-15.17-72.96,0l-64,44.39
		C138.28,175.44,128,195.08,128,216.06V288c0,29.46,23.88,53.33,53.33,53.33h149.33c29.46,0,53.33-23.88,53.33-53.33v-71.94
		C384,195.08,373.72,175.44,356.48,163.48z M341.33,288c0,5.89-4.78,10.67-10.67,10.67h-32V256c0-11.78-9.55-21.33-21.33-21.33
		h-42.67c-11.78,0-21.33,9.55-21.33,21.33v42.67h-32c-5.89,0-10.67-4.78-10.67-10.67v-71.94c0-7,3.43-13.55,9.17-17.54l64-44.39
		c7.32-5.04,17-5.04,24.32,0l64,44.39c5.75,3.99,9.18,10.54,9.17,17.54V288z"/>
</g>
</svg>
