<?xml version="1.0" encoding="utf-8"?>
<!-- Generator: Adobe Illustrator 26.5.0, SVG Export Plug-In . SVG Version: 6.00 Build 0)  -->
<svg version="1.1" id="Capa_1" xmlns="http://www.w3.org/2000/svg" xmlns:xlink="http://www.w3.org/1999/xlink" x="0px" y="0px"
	 viewBox="0 0 512 512" style="enable-background:new 0 0 512 512;" xml:space="preserve">
<g>
	<path style="fill:#6600FF;" d="M310.51,174.25c-9.83-6.57-23.06-3.88-29.59,5.91l-85.33,128c-6.55,9.79-3.9,23.06,5.91,29.59
		c3.65,2.43,7.74,3.58,11.82,3.58c6.89,0,13.67-3.33,17.77-9.49l85.33-128C322.97,194.05,320.32,180.78,310.51,174.25z"/>
	<circle style="fill:#6600FF;" cx="192" cy="192" r="21.33"/>
	<path style="fill:#6600FF;" d="M512,256c0-34.69-15.23-67.41-41.07-87.98c2.97-34.6-9.41-68.52-33.92-93.06
		c-24.53-24.51-58.35-36.93-91.24-33.17C323.41,15.23,290.69,0,256,0s-67.41,15.25-87.98,41.07c-34.65-2.99-68.5,9.37-93.03,33.92
		c-24.53,24.53-36.91,58.45-33.17,91.24C15.23,188.59,0,221.31,0,256s15.23,67.41,41.07,87.98c-2.97,34.6,9.41,68.52,33.92,93.06
		c24.53,24.51,58.39,36.95,91.24,33.17C188.59,496.77,221.31,512,256,512s67.41-15.25,87.98-41.07
		c34.56,2.97,68.48-9.39,93.03-33.92c24.53-24.53,36.91-58.45,33.17-91.24C496.77,323.41,512,290.69,512,256z M442.73,313.11
		c-10.24,8.62-15.45,21.18-14.29,34.5c1.88,22.04-5.99,43.63-21.59,59.22c-15.62,15.62-37.16,23.45-59.22,21.59
		c-13.35-1.09-25.88,4.07-34.47,14.29c-14.25,16.92-35.07,26.62-57.15,26.62s-42.9-9.71-57.15-26.62
		c-7.83-9.28-18.92-14.42-30.89-14.42v0c-1.19,0-2.39,0.04-3.61,0.15c-21.8,1.83-43.58-5.97-59.2-21.59
		c-15.62-15.59-23.47-37.18-21.59-59.22c1.15-13.31-4.07-25.9-14.29-34.5c-16.9-14.23-26.6-35.07-26.6-57.13s9.71-42.9,26.6-57.13
		c10.24-8.62,15.45-21.18,14.29-34.5c-1.88-22.04,5.99-43.63,21.59-59.22c15.62-15.62,37.06-23.51,59.22-21.59
		c13.29,1.05,25.86-4.07,34.47-14.29C213.1,52.35,233.92,42.65,256,42.65s42.9,9.71,57.15,26.62c8.6,10.2,21.14,15.49,34.5,14.27
		c21.91-1.79,43.58,5.99,59.2,21.59s23.47,37.18,21.59,59.22c-1.15,13.31,4.07,25.9,14.29,34.5c16.9,14.23,26.6,35.07,26.6,57.13
		C469.33,278.04,459.63,298.88,442.73,313.11z"/>
	
		<ellipse transform="matrix(0.3827 -0.9239 0.9239 0.3827 -98.1002 493.1827)" style="fill:#6600FF;" cx="320" cy="320" rx="21.33" ry="21.33"/>
</g>
</svg>
