<?xml version="1.0" encoding="utf-8"?>
<!-- Generator: Adobe Illustrator 26.5.0, SVG Export Plug-In . SVG Version: 6.00 Build 0)  -->
<svg version="1.1" id="Capa_1" xmlns="http://www.w3.org/2000/svg" xmlns:xlink="http://www.w3.org/1999/xlink" x="0px" y="0px"
	 viewBox="0 0 512 512" style="enable-background:new 0 0 512 512;" xml:space="preserve">
<g>
	<path style="fill:#6600FF;" d="M407.36,147.25c5.42-5.17,5.65-13.83,0.52-19.3c-0.16-0.17-0.32-0.33-0.49-0.5l-0.08-0.08
		c-5.17-5.39-13.81-5.61-19.26-0.49c-0.18,0.17-0.35,0.34-0.52,0.52l-0.08,0.08l-11.23,11.02c-5.92,5.98-13.77,9.28-22.14,9.32
		l-0.16,0c-8.31,0-16.13-3.22-22.04-9.07l-0.27-0.27c-9.93-9.8-23.11-15.23-37.08-15.29h-0.12c-22.84,0-42.83,14.62-49.76,36.39
		l-35.3,126.38c-1.16,4.2-0.34,8.63,2.25,12.13c2.62,3.57,6.79,5.69,11.17,5.69l0.12,0h65.33c7.8,0,14.14-6.34,14.14-14.14
		S296,275.5,288.2,275.5H242l29.56-107.71c3.46-9.68,12.69-16.24,22.96-16.31h0.12c6.32,0,12.5,2.6,16.95,7.13
		c11.26,11.19,26.28,17.37,42.28,17.37c0,0,0,0,0.01,0c16.03,0,31.09-6.2,42.41-17.45L407.36,147.25z"/>
	<path style="fill:#6600FF;" d="M211.52,147.27c2.63-2.5,4.14-5.87,4.25-9.5c0.12-3.66-1.2-7.15-3.71-9.82
		c-0.16-0.17-0.33-0.34-0.49-0.5l-0.08-0.08c-2.49-2.59-5.85-4.08-9.44-4.2c-3.63-0.09-7.15,1.2-9.82,3.71
		c-0.18,0.17-0.36,0.35-0.54,0.53c-18.55,18.21-48.64,18.22-67.13,0.07c-2.57-2.69-5.93-4.19-9.55-4.31c-0.16,0-0.32-0.01-0.49-0.01
		c-3.47,0-6.77,1.31-9.33,3.72c-0.17,0.16-0.34,0.32-0.5,0.5l-0.08,0.08c-5.39,5.17-5.61,13.82-0.5,19.27
		c0.17,0.19,0.36,0.37,0.54,0.54c14.26,14.34,33.22,22.21,53.43,22.21c0,0,0,0,0,0c20.02,0,38.84-7.74,53.02-21.8L211.52,147.27z"/>
	<path style="fill:#6600FF;" d="M324.25,343.06l-0.03,0.02c-16.99,11.47-36.82,17.54-57.34,17.54s-40.36-6.08-57.39-17.58
		c-2.35-1.57-5.07-2.39-7.85-2.39c-0.94,0-1.89,0.09-2.83,0.28c-3.73,0.75-6.95,2.9-9.06,6.07c-2.11,3.17-2.86,6.97-2.12,10.7
		c0.75,3.73,2.9,6.95,6.08,9.07c21.81,14.48,47.11,22.13,73.16,22.13c26.06,0,51.37-7.66,73.18-22.14c3.16-2.11,5.32-5.32,6.06-9.06
		c0.75-3.73-0.01-7.53-2.12-10.69C339.65,340.48,330.79,338.7,324.25,343.06z"/>
	<path style="fill:#6600FF;" d="M120.94,487.72H24.28V374.25c0-6.7-5.45-12.14-12.14-12.14S0,367.56,0,374.25v125.6
		C0,506.55,5.45,512,12.14,512h108.79c6.7,0,12.14-5.45,12.14-12.14S127.63,487.72,120.94,487.72z"/>
	<path style="fill:#6600FF;" d="M499.86,362.11c-6.7,0-12.14,5.45-12.14,12.14v113.46h-96.65c-6.7,0-12.14,5.45-12.14,12.14
		S384.37,512,391.06,512h108.79c6.7,0,12.14-5.45,12.14-12.14v-125.6C512,367.56,506.55,362.11,499.86,362.11z"/>
	<path style="fill:#6600FF;" d="M12.14,149.89c6.7,0,12.14-5.45,12.14-12.14V24.28h96.65c6.7,0,12.14-5.45,12.14-12.14
		S127.63,0,120.94,0H12.14C5.45,0,0,5.45,0,12.14v125.6C0,144.44,5.45,149.89,12.14,149.89z"/>
	<path style="fill:#6600FF;" d="M499.86,0H391.06c-6.7,0-12.14,5.45-12.14,12.14s5.45,12.14,12.14,12.14h96.65v113.46
		c0,6.7,5.45,12.14,12.14,12.14S512,144.44,512,137.75V12.14C512,5.45,506.55,0,499.86,0z"/>
</g>
</svg>
