<?xml version="1.0" encoding="utf-8"?>
<!-- Generator: Adobe Illustrator 26.5.0, SVG Export Plug-In . SVG Version: 6.00 Build 0)  -->
<svg version="1.1" id="Capa_1" xmlns="http://www.w3.org/2000/svg" xmlns:xlink="http://www.w3.org/1999/xlink" x="0px" y="0px"
	 viewBox="0 0 512 512" style="enable-background:new 0 0 512 512;" xml:space="preserve">
<g>
	<path style="fill:#6600FF;" d="M126.65,285.65h215.6c5.04,0,9.77-1.97,13.33-5.53c3.56-3.56,5.52-8.3,5.52-13.35
		c0-5.04-1.97-9.77-5.53-13.33c-3.56-3.56-8.29-5.51-13.32-5.51c0,0-0.01,0-0.01,0H126.65c-10.4,0-18.86,8.46-18.86,18.86
		C107.79,277.18,116.25,285.65,126.65,285.65z"/>
	<path style="fill:#6600FF;" d="M126.65,156.3c0,0,0.01,0,0.01,0h107.79c10.4,0,18.86-8.46,18.86-18.86
		c0-10.4-8.46-18.86-18.86-18.86H126.64c-5.04,0-9.77,1.97-13.33,5.53c-3.56,3.56-5.52,8.3-5.52,13.35
		C107.8,147.85,116.25,156.3,126.65,156.3z"/>
	<path style="fill:#6600FF;" d="M126.65,220.97h258.71c10.4-0.01,18.85-8.47,18.85-18.88c0-5.04-1.97-9.77-5.53-13.33
		c-3.56-3.56-8.29-5.51-13.33-5.51c0,0-0.01,0-0.01,0H126.65c-10.4,0-18.86,8.46-18.86,18.86
		C107.79,212.51,116.25,220.97,126.65,220.97z"/>
	<path style="fill:#6600FF;" d="M450.03,21.56H61.97C27.84,21.6,0.04,49.4,0,83.54v237.15c0.04,34.13,27.84,61.93,61.98,61.97h13.47
		v77.59c-0.11,12.39,7.24,23.41,18.73,28.07c3.59,1.45,7.33,2.15,11.02,2.15c7.85,0,15.49-3.18,21.12-9.14l94.6-98.67h229.1
		c34.13-0.04,61.93-27.84,61.97-61.98V83.53C511.96,49.4,484.16,21.6,450.03,21.56z M61.99,344.93
		c-13.36-0.01-24.25-10.9-24.26-24.25V83.55c0.01-13.36,10.9-24.25,24.25-24.26h388.03c13.36,0.01,24.25,10.9,24.26,24.25v237.13
		c-0.01,13.36-10.9,24.25-24.25,24.26H212.88c-5.11,0-10.07,2.11-13.61,5.8l-86.1,89.53V363.8c0-5.04-1.96-9.77-5.52-13.34
		c-3.56-3.56-8.29-5.53-13.35-5.53H61.99z"/>
</g>
</svg>
