<?xml version="1.0" encoding="utf-8"?>
<!-- Generator: Adobe Illustrator 26.5.0, SVG Export Plug-In . SVG Version: 6.00 Build 0)  -->
<svg version="1.1" id="Capa_1" xmlns="http://www.w3.org/2000/svg" xmlns:xlink="http://www.w3.org/1999/xlink" x="0px" y="0px"
	 viewBox="0 0 512 512" style="enable-background:new 0 0 512 512;" xml:space="preserve">
<path style="fill:#6600FF;" d="M461.22,88.41H50.78c-28,0-50.78,22.78-50.78,50.78v233.62c0,28,22.78,50.78,50.78,50.78h410.45
	c28,0,50.78-22.78,50.78-50.78V139.19C512,111.19,489.22,88.41,461.22,88.41z M446.99,122.26L261.22,308.03
	c-2.79,2.79-7.65,2.79-10.45,0L65.02,122.26H446.99z M35.7,380.16c-1.1-2.25-1.85-4.68-1.85-7.36V139.19c0-0.07,0.03-0.11,0.03-0.18
	L155.37,260.5L35.7,380.16z M74,389.74l105.31-105.3l47.54,47.54c7.79,7.79,18.15,12.08,29.16,12.08c11.01,0,21.36-4.29,29.16-12.08
	l47.54-47.54l105.3,105.3H74z M478.15,372.81c0,2.67-0.75,5.11-1.86,7.36L356.63,260.49l121.49-121.49c0,0.07,0.03,0.12,0.03,0.18
	V372.81z"/>
</svg>
