<?xml version="1.0" encoding="utf-8"?>
<!-- Generator: Adobe Illustrator 26.5.0, SVG Export Plug-In . SVG Version: 6.00 Build 0)  -->
<svg version="1.1" id="Capa_1" xmlns="http://www.w3.org/2000/svg" xmlns:xlink="http://www.w3.org/1999/xlink" x="0px" y="0px"
	 viewBox="0 0 512 512" style="enable-background:new 0 0 512 512;" xml:space="preserve">
<g>
	<path style="fill:#6600FF;" d="M372.73,306.82c-6.34-3.18-37.51-18.51-43.32-20.62c-5.81-2.12-10.04-3.17-14.26,3.18
		c-4.23,6.34-16.37,20.62-20.07,24.85c-3.7,4.23-7.39,4.76-13.73,1.59c-6.34-3.17-26.77-9.87-50.98-31.47
		c-18.84-16.81-31.57-37.57-35.27-43.91c-3.69-6.35-0.03-9.45,2.78-12.94c6.86-8.52,13.73-17.46,15.85-21.68
		c2.12-4.23,1.06-7.93-0.53-11.11c-1.58-3.17-14.26-34.38-19.54-47.07c-5.15-12.36-10.37-10.69-14.27-10.88
		c-3.69-0.18-7.92-0.22-12.15-0.22c-4.23,0-11.09,1.58-16.91,7.93c-5.81,6.35-22.18,21.68-22.18,52.88s22.72,61.35,25.88,65.58
		c3.17,4.23,44.7,68.26,108.29,95.72c15.12,6.54,26.93,10.43,36.14,13.36c15.19,4.82,29,4.14,39.93,2.51
		c12.18-1.82,37.5-15.34,42.79-30.14c5.28-14.81,5.28-27.5,3.69-30.15C383.3,311.58,379.07,309.99,372.73,306.82z"/>
	<path style="fill:#6600FF;" d="M436.53,74.41C388.63,26.45,324.93,0.03,257.07,0C117.22,0,3.41,113.81,3.35,253.69
		c-0.02,44.72,11.66,88.37,33.87,126.84L1.22,512l134.5-35.28c37.06,20.22,78.78,30.87,121.24,30.88h0.11
		c139.83,0,253.65-113.82,253.71-253.71C510.8,186.1,484.44,122.36,436.53,74.41z M257.07,464.75h-0.09
		c-37.84-0.02-74.95-10.18-107.33-29.39l-7.7-4.57l-79.81,20.94l21.3-77.82l-5.02-7.98c-21.11-33.57-32.26-72.38-32.24-112.22
		c0.04-116.27,94.64-210.86,210.96-210.86c56.32,0.02,109.27,21.98,149.08,61.84s61.72,92.84,61.71,149.19
		C467.89,370.15,373.3,464.75,257.07,464.75z"/>
</g>
</svg>
