<?xml version="1.0" encoding="utf-8"?>
<!-- Generator: Adobe Illustrator 26.5.0, SVG Export Plug-In . SVG Version: 6.00 Build 0)  -->
<svg version="1.1" id="Capa_1" xmlns="http://www.w3.org/2000/svg" xmlns:xlink="http://www.w3.org/1999/xlink" x="0px" y="0px"
	 viewBox="0 0 512 512" style="enable-background:new 0 0 512 512;" xml:space="preserve">
<g>
	<path style="fill:#FFFFFF;" d="M328.29,300.46c1.04-11.73-7.62-22.09-19.36-23.14c-0.03,0-0.05,0-0.08-0.01
		c-11.52-1.18-21.82,7.2-23,18.72c-0.02,0.24-0.04,0.47-0.06,0.71c-6.63,78.01-30.27,136.52-72.27,178.78
		c-8.31,8.36-8.26,21.87,0.1,30.17c8.36,8.31,21.87,8.26,30.17-0.1v0.09C292.48,456.63,320.91,387.64,328.29,300.46z"/>
	<path style="fill:#FFFFFF;" d="M53.2,319.98c11.78,0,21.33-9.55,21.33-21.33v-64c0.12-105.98,86-191.87,191.99-191.99
		c41.56-0.14,82.02,13.35,115.19,38.4c9.43,7.07,22.8,5.16,29.86-4.27c7.07-9.42,5.16-22.8-4.27-29.86
		C366.76,16.33,317.31-0.15,266.52,0C136.99,0.15,32.02,105.12,31.87,234.65v64C31.87,310.43,41.42,319.98,53.2,319.98z"/>
	<path style="fill:#FFFFFF;" d="M161.33,216.88c2.59-11.49-4.63-22.91-16.12-25.5c-11.49-2.59-22.91,4.63-25.5,16.12
		c-0.17,0.74-0.3,1.5-0.38,2.25c-1.41,8.22-2.12,16.55-2.13,24.89c0,99.09-28.71,149.32-85.33,149.32
		c-11.78,0-21.33,9.55-21.33,21.33c0,11.78,9.55,21.33,21.33,21.33c82.53,0,127.99-68.26,127.99-191.99
		C159.85,228.7,160.35,222.75,161.33,216.88z"/>
	<path style="fill:#FFFFFF;" d="M266.52,213.32c11.78,0,21.33,9.55,21.33,21.33c0,11.78,9.55,21.33,21.33,21.33
		s21.33-9.55,21.33-21.33c0-35.34-28.65-64-64-64c-35.34,0-64,28.65-64,64c0,58.24,0,155.72-75.58,201.12
		c-6.41,3.86-10.34,10.79-10.34,18.27c0,11.78,9.54,21.33,21.33,21.34c3.86,0,7.65-1.05,10.96-3.03
		c96.29-57.79,96.29-174.83,96.29-237.7C245.19,222.87,254.74,213.32,266.52,213.32z"/>
	<path style="fill:#FFFFFF;" d="M373.43,406.87c-10.81-3.61-22.55,1.9-26.66,12.53c-7.51,20.95-17.07,41.11-28.54,60.18
		c-6.11,10.08-2.9,23.21,7.18,29.32c10.08,6.11,23.21,2.9,29.32-7.18c12.94-21.5,23.72-44.23,32.17-67.86
		C390.63,422.69,384.6,410.61,373.43,406.87z"/>
	<path style="fill:#FFFFFF;" d="M501.17,234.65c0.1-35.43-7.93-70.42-23.47-102.26c-5.15-10.6-17.93-15.02-28.53-9.87
		c-10.6,5.15-15.02,17.93-9.87,28.53c12.69,26.04,19.26,54.63,19.2,83.6c2.69,84.66-12.73,168.92-45.2,247.15
		c-4.86,10.73-0.1,23.37,10.64,28.23c0.01,0,0.02,0.01,0.03,0.01c2.76,1.27,5.77,1.93,8.81,1.92c8.33-0.04,15.88-4.92,19.33-12.5
		C487.21,415.72,503.94,325.41,501.17,234.65z"/>
	<path style="fill:#FFFFFF;" d="M415.84,234.65c-0.06-82.47-66.95-149.28-149.42-149.22c-42.41,0.03-82.8,18.09-111.1,49.67
		c-8.11,8.54-7.76,22.05,0.78,30.16c8.54,8.11,22.05,7.76,30.16-0.78c0.28-0.3,0.56-0.6,0.82-0.92
		c39.31-43.87,106.74-47.57,150.61-8.27c22.56,20.22,35.47,49.07,35.49,79.37c0.79,41.53-2.51,83.03-9.86,123.92
		c-2.24,11.56,5.3,22.74,16.85,25c1.36,0.27,2.73,0.41,4.12,0.41c10.19-0.03,18.94-7.26,20.88-17.26
		C413.08,323.15,416.65,278.92,415.84,234.65z"/>
</g>
</svg>
