<?xml version="1.0" encoding="utf-8"?>
<!-- Generator: Adobe Illustrator 26.5.0, SVG Export Plug-In . SVG Version: 6.00 Build 0)  -->
<svg version="1.1" id="Capa_1" xmlns="http://www.w3.org/2000/svg" xmlns:xlink="http://www.w3.org/1999/xlink" x="0px" y="0px"
	 viewBox="0 0 512 512" style="enable-background:new 0 0 512 512;" xml:space="preserve">
<g>
	<path style="fill:#6600FF;" d="M413.94,375.43c-28.92-22.83-105.22-83.22-117.28-122.67c-0.07-0.22-0.14-0.44-0.2-0.66
		c-0.29-0.85-0.59-1.69-0.92-2.51c-0.09-0.24-0.2-0.47-0.3-0.71c-0.23-0.57-0.47-1.14-0.72-1.7c-0.15-0.33-0.31-0.66-0.47-0.99
		c-0.21-0.45-0.43-0.9-0.65-1.35c-0.19-0.37-0.39-0.73-0.59-1.1c-0.21-0.39-0.42-0.78-0.64-1.16c-0.22-0.39-0.45-0.77-0.69-1.15
		c-0.21-0.34-0.42-0.69-0.63-1.03c-0.25-0.39-0.51-0.78-0.77-1.16c-0.21-0.31-0.42-0.63-0.64-0.94c-0.28-0.39-0.56-0.77-0.85-1.16
		c-0.22-0.29-0.44-0.58-0.66-0.86c-0.3-0.38-0.6-0.76-0.91-1.13c-0.22-0.27-0.45-0.54-0.68-0.81c-0.32-0.37-0.64-0.73-0.97-1.09
		c-0.23-0.26-0.47-0.51-0.71-0.76c-0.33-0.35-0.67-0.7-1.01-1.04c-0.25-0.25-0.5-0.49-0.75-0.73c-0.35-0.33-0.69-0.66-1.05-0.98
		c-0.27-0.24-0.54-0.48-0.81-0.71c-0.35-0.31-0.71-0.62-1.06-0.91c-0.29-0.24-0.58-0.47-0.87-0.7c-0.35-0.28-0.71-0.56-1.07-0.83
		c-0.32-0.24-0.64-0.47-0.97-0.7c-0.35-0.25-0.69-0.5-1.04-0.74c-0.36-0.25-0.74-0.49-1.11-0.73c-0.32-0.21-0.64-0.42-0.96-0.62
		c-0.45-0.27-0.9-0.53-1.35-0.8c-0.26-0.15-0.52-0.31-0.78-0.46c-0.72-0.4-1.45-0.78-2.18-1.15c0,0-0.01,0-0.01,0
		c-0.75-0.37-1.52-0.73-2.29-1.07c-0.13-0.06-0.27-0.11-0.4-0.16c-0.63-0.27-1.27-0.54-1.91-0.78c-0.24-0.09-0.48-0.17-0.72-0.26
		c-0.54-0.2-1.08-0.4-1.63-0.58c-0.29-0.1-0.59-0.18-0.88-0.27c-0.5-0.16-0.99-0.31-1.5-0.45c-0.34-0.09-0.68-0.18-1.02-0.27
		c-0.46-0.12-0.92-0.24-1.39-0.35c-0.38-0.09-0.76-0.16-1.14-0.24c-0.43-0.09-0.86-0.18-1.29-0.26c-0.42-0.08-0.84-0.14-1.26-0.21
		c-0.4-0.06-0.79-0.12-1.19-0.18c-0.46-0.06-0.91-0.11-1.37-0.16c-0.36-0.04-0.73-0.08-1.09-0.11c-0.49-0.04-0.99-0.08-1.48-0.11
		c-0.33-0.02-0.66-0.04-0.99-0.05c-0.53-0.02-1.06-0.03-1.59-0.04c-0.3,0-0.59,0-0.89,0c-0.56,0-1.12,0.02-1.68,0.04
		c-0.27,0.01-0.54,0.02-0.81,0.04c-0.58,0.03-1.17,0.07-1.76,0.12c-0.25,0.02-0.51,0.05-0.76,0.08c-0.6,0.06-1.19,0.13-1.79,0.21
		c-0.25,0.03-0.51,0.08-0.76,0.11c-0.59,0.09-1.18,0.18-1.77,0.29c-0.28,0.05-0.57,0.11-0.85,0.17c-0.55,0.11-1.1,0.23-1.65,0.36
		c-0.08,0.02-0.16,0.03-0.24,0.05c-0.26,0.06-0.52,0.14-0.78,0.21c-0.51,0.13-1.03,0.26-1.54,0.41c-0.49,0.14-0.97,0.3-1.45,0.45
		c-0.27,0.09-0.55,0.16-0.82,0.25c-0.08,0.03-0.17,0.06-0.25,0.09c-0.51,0.17-1.01,0.36-1.52,0.55c-0.3,0.11-0.6,0.22-0.89,0.34
		c-0.54,0.21-1.06,0.44-1.59,0.67c-0.26,0.11-0.52,0.22-0.78,0.34c-0.53,0.24-1.05,0.49-1.56,0.74c-0.25,0.12-0.5,0.25-0.75,0.37
		c-0.5,0.26-1,0.52-1.49,0.8c-0.26,0.14-0.52,0.29-0.78,0.44c-0.47,0.27-0.93,0.54-1.38,0.83c-0.28,0.17-0.55,0.34-0.82,0.52
		c-0.43,0.27-0.85,0.55-1.27,0.84c-0.29,0.2-0.58,0.4-0.87,0.61c-0.38,0.27-0.77,0.55-1.14,0.84c-0.31,0.24-0.62,0.48-0.93,0.72
		c-0.34,0.27-0.68,0.54-1.02,0.82c-0.33,0.27-0.65,0.55-0.97,0.84c-0.3,0.26-0.6,0.52-0.9,0.79c-0.34,0.31-0.68,0.64-1.02,0.96
		c-0.26,0.25-0.52,0.5-0.78,0.76c-0.36,0.36-0.71,0.73-1.05,1.1c-0.22,0.23-0.45,0.47-0.66,0.7c-0.37,0.41-0.73,0.83-1.09,1.25
		c-0.18,0.21-0.36,0.42-0.54,0.63c-0.39,0.48-0.77,0.96-1.15,1.45c-0.13,0.17-0.27,0.33-0.4,0.51c-0.45,0.6-0.88,1.2-1.3,1.82
		c-0.05,0.07-0.1,0.14-0.15,0.21c-0.94,1.39-1.82,2.81-2.62,4.28c-0.13,0.24-0.26,0.49-0.39,0.74c-0.26,0.48-0.51,0.97-0.75,1.46
		c-0.16,0.33-0.31,0.67-0.47,1.01c-0.19,0.41-0.39,0.82-0.57,1.23c-0.17,0.38-0.32,0.77-0.48,1.16c-0.15,0.38-0.31,0.75-0.46,1.13
		c-0.16,0.42-0.31,0.84-0.45,1.26c-0.13,0.36-0.25,0.71-0.37,1.07c-0.15,0.44-0.28,0.89-0.41,1.33c-0.1,0.35-0.21,0.69-0.31,1.04
		c-0.13,0.46-0.25,0.92-0.36,1.39c-0.08,0.34-0.17,0.68-0.25,1.02c-0.11,0.47-0.21,0.95-0.3,1.43c-0.07,0.34-0.13,0.68-0.2,1.02
		c-0.09,0.48-0.17,0.96-0.24,1.44c-0.05,0.35-0.1,0.7-0.15,1.04c-0.06,0.48-0.12,0.96-0.17,1.45c-0.04,0.36-0.07,0.72-0.1,1.08
		c-0.04,0.48-0.08,0.95-0.1,1.43c-0.02,0.38-0.03,0.75-0.05,1.13c-0.02,0.47-0.03,0.93-0.03,1.4c0,0.4,0,0.8,0.01,1.2
		c0.01,0.45,0.01,0.89,0.03,1.34c0.02,0.44,0.05,0.87,0.08,1.31c0.03,0.42,0.05,0.83,0.09,1.25c0.04,0.49,0.1,0.99,0.16,1.48
		c0.04,0.36,0.08,0.73,0.13,1.09c0.08,0.61,0.19,1.21,0.29,1.82c0.04,0.26,0.08,0.51,0.13,0.77c0.16,0.87,0.35,1.74,0.56,2.62
		c1.52,5.29,3.37,10.54,5.5,15.75c24.78,60.4,88.9,114.84,148.08,161.69c1.68,1.33,3.71,2.11,5.83,2.27
		c0.08,0.01,0.16,0.01,0.24,0.01c0.18,0.01,0.36,0.02,0.54,0.02l-0.08-0.01c3.19,0.04,6.37-1.33,8.51-4.03
		c3.66-4.62,2.88-11.32-1.74-14.98c-61.7-48.82-128.96-105.98-146.4-166.61c-4.88-16.98,4.93-34.71,21.92-39.59
		c3.18-0.92,6.4-1.31,9.54-1.25c0.05,0,0.1,0.01,0.14,0.01c0.4,0.01,0.8,0.03,1.2,0.06c13.01,0.93,24.66,9.81,28.47,23.08
		c11.62,40.53,69.54,90.56,124.61,134.14c0.17,0.14,0.34,0.28,0.51,0.41c4.73,3.51,11.4,2.52,14.91-2.21
		c1.84-2.48,2.43-5.49,1.91-8.3C417.4,379.51,416.09,377.14,413.94,375.43z"/>
	<path style="fill:#6600FF;" d="M443.87,279.88c-2.85-2.31-5.85-4.75-8.93-7.27c-23.89-19.49-52.97-43.57-57.67-47.99
		c-22.54-69.12-94.19-108.97-164.31-92.51c-1.98,0.46-3.95,0.96-5.92,1.52c-0.02,0.01-0.04,0.01-0.06,0.02
		c-0.02,0-0.03,0.01-0.05,0.01c-0.37,0.11-0.74,0.22-1.11,0.33c-0.76,0.22-1.52,0.45-2.27,0.68c-0.64,0.2-1.28,0.42-1.92,0.63
		c-0.48,0.16-0.96,0.31-1.44,0.47c-0.93,0.32-1.85,0.65-2.76,0.99c-0.18,0.07-0.37,0.13-0.55,0.2
		c-67.32,24.98-105,98.04-84.83,168.18c17.46,60.78-20.06,77.64-31.98,81.37c-4.44,1.39-7.46,5.5-7.46,10.15
		c0,1.91,0.5,3.71,1.38,5.26c0.01,0.02,0.02,0.03,0.03,0.05c0.15,0.26,0.3,0.51,0.47,0.75c0.15,0.23,0.32,0.45,0.49,0.66
		c0.02,0.03,0.04,0.06,0.06,0.08c2.67,3.29,7.18,4.8,11.47,3.45c28.02-8.76,55.35-35.33,50.92-82.73
		c-0.72-7.75-2.29-16.07-4.85-24.95c0-0.01,0-0.01-0.01-0.02c-17.88-62.24,18.08-127.19,80.32-145.08c2.02-0.57,4.05-1.08,6.08-1.54
		c59.62-13.43,120.17,21.12,138.46,80.16c0.25,0.83,0.61,1.63,1.07,2.37c1.11,1.83,3.39,5.69,71.91,61.29
		c4.57,3.71,11.28,3.02,15-1.55C449.13,290.31,448.44,283.59,443.87,279.88z"/>
	<path style="fill:#6600FF;" d="M435.37,335.4c-0.03-0.04-0.06-0.07-0.08-0.11c-0.56-0.78-1.24-1.51-2.03-2.14
		c-79.24-62.68-92.8-82.53-95.79-92.84c-14.08-48.62-63.23-77.6-112.01-67.33c-2.23,0.47-4.47,1.01-6.7,1.65
		c-49.97,15.44-78.97,67.44-65.85,118.07c20.42,92.98,7.01,118.17-32.12,132.31c-2.13,0.77-4.32,1.5-6.6,2.22
		c-0.01,0-0.02,0.01-0.03,0.01c-0.3,0.1-0.6,0.21-0.89,0.33c-0.11,0.05-0.21,0.1-0.32,0.14c-0.19,0.09-0.38,0.18-0.56,0.27
		c-0.12,0.06-0.24,0.13-0.35,0.19c-0.17,0.1-0.33,0.2-0.49,0.3c-0.11,0.07-0.22,0.14-0.33,0.22c-0.2,0.14-0.39,0.29-0.58,0.45
		c-0.11,0.09-0.22,0.19-0.33,0.28c-0.17,0.15-0.33,0.3-0.49,0.46c-0.09,0.09-0.17,0.18-0.26,0.28c-0.13,0.14-0.26,0.29-0.38,0.44
		c-0.08,0.09-0.15,0.19-0.23,0.29c-0.13,0.17-0.25,0.34-0.37,0.52c-0.06,0.08-0.11,0.16-0.17,0.25c-0.17,0.26-0.32,0.52-0.47,0.8
		c0,0,0,0.01,0,0.01c-0.15,0.28-0.28,0.58-0.41,0.88c-0.03,0.07-0.05,0.14-0.08,0.21c-0.09,0.22-0.17,0.45-0.24,0.68
		c-0.03,0.1-0.06,0.2-0.09,0.31c-0.06,0.2-0.11,0.41-0.15,0.61c-0.02,0.12-0.05,0.23-0.07,0.35c-0.04,0.2-0.06,0.41-0.09,0.61
		c-0.01,0.12-0.03,0.23-0.04,0.35c-0.03,0.3-0.04,0.61-0.04,0.92c0,0,0,0,0,0c0,0.34,0.02,0.69,0.05,1.03c0,0.02,0,0.04,0,0.06
		c0.01,0.09,0.03,0.18,0.04,0.28c0.13,1,0.39,1.96,0.77,2.85c0.03,0.06,0.06,0.12,0.09,0.18c0.11,0.25,0.23,0.5,0.37,0.75
		c0.08,0.14,0.16,0.27,0.25,0.41c0.1,0.16,0.19,0.31,0.29,0.46c0.11,0.16,0.23,0.32,0.36,0.48c0.09,0.11,0.17,0.23,0.26,0.34
		c0.13,0.16,0.27,0.31,0.41,0.46c0.09,0.1,0.19,0.21,0.28,0.3c0.14,0.13,0.28,0.26,0.42,0.39c0.12,0.1,0.23,0.21,0.35,0.31
		c0.13,0.1,0.26,0.2,0.39,0.29c0.15,0.11,0.3,0.22,0.45,0.32c0.11,0.07,0.23,0.14,0.34,0.21c0.18,0.11,0.36,0.22,0.55,0.32
		c0.1,0.05,0.21,0.1,0.31,0.15c0.2,0.1,0.41,0.2,0.62,0.29c0.11,0.04,0.22,0.08,0.33,0.12c0.21,0.08,0.42,0.16,0.63,0.22
		c0.15,0.04,0.3,0.08,0.45,0.12c0.18,0.05,0.36,0.1,0.54,0.13c0.24,0.05,0.48,0.08,0.72,0.11c0.1,0.01,0.2,0.03,0.3,0.04
		c0.45,0.05,0.9,0.06,1.35,0.05c0.22-0.01,0.44-0.02,0.66-0.04c0.11-0.01,0.22-0.02,0.33-0.04c0.23-0.03,0.46-0.06,0.68-0.11
		c0.09-0.02,0.18-0.03,0.27-0.05c0.28-0.06,0.56-0.13,0.83-0.21c0.02-0.01,0.05-0.01,0.07-0.02c0.03-0.01,0.05-0.01,0.08-0.02
		c61.72-19.19,75.13-59.52,53.3-159.45c-10.61-39.62,11.82-80.58,50.91-92.99c23.48-6.67,47.54-1.35,65.63,12.33
		c12.37,9.39,21.92,22.71,26.56,38.77c4.16,14.5,15.48,34.47,102.89,103.59c0.17,0.14,0.34,0.28,0.51,0.41
		c4.73,3.51,11.4,2.52,14.91-2.21c2.76-3.72,2.73-8.64,0.29-12.28C435.51,335.61,435.44,335.51,435.37,335.4z"/>
	<path style="fill:#6600FF;" d="M212.81,370.19c-0.06-0.16-0.13-0.31-0.2-0.47c-0.07-0.23-0.13-0.46-0.21-0.68
		c-2.11-5.5-8.27-8.24-13.77-6.14c-5.5,2.11-8.24,8.27-6.14,13.77c5.62,17.79,0.78,46.27-10.2,67.3
		c-6.62,12.62-15.46,22.54-25.57,25.82c-5.62,1.76-8.75,7.74-6.99,13.36c0.69,2.21,2.04,4.02,3.76,5.32
		c1.8,1.39,4.06,2.22,6.51,2.22c1.11,0.03,2.22-0.11,3.28-0.43c19.22-6.28,33.78-25.27,42.67-47.32
		C216.04,417.96,218.82,389.01,212.81,370.19z"/>
	<path style="fill:#6600FF;" d="M447.92,234.5c-0.01-0.17-0.01-0.34-0.02-0.51c-0.02-0.21-0.05-0.42-0.08-0.62
		c-0.02-0.12-0.03-0.25-0.05-0.37c-0.04-0.24-0.1-0.48-0.16-0.72c-0.02-0.08-0.04-0.17-0.06-0.25c-0.08-0.27-0.17-0.54-0.26-0.8
		c-0.02-0.05-0.03-0.1-0.05-0.14c-0.11-0.3-0.24-0.59-0.38-0.87c-0.01-0.01-0.01-0.03-0.02-0.04c-1.25-2.52-3.47-4.54-6.36-5.45
		c-13.33-4.33-23.79-21.23-35.92-40.78c-14.45-23.34-31.91-51.52-61.93-71.72c-23.35-15.71-54.29-26.58-97.33-26.58
		C145.25,85.73,64.19,166.8,64.07,266.83c0,5.89,4.77,10.66,10.66,10.66c0.37,0,0.73-0.02,1.09-0.06c0.45-0.05,0.89-0.13,1.32-0.23
		c0.61-0.14,1.19-0.32,1.76-0.56c3.82-1.62,6.49-5.41,6.49-9.81c0.05-44.13,17.95-84.08,46.88-113.01s68.88-46.83,113.01-46.88
		c34.41,0,59.91,7.74,79.7,19.54c29.95,17.86,46.78,45.01,61.44,68.68c14.33,23.13,26.69,43.11,47.46,49.84
		c5.3,1.79,11.02-0.84,13.19-5.89c0.01-0.03,0.02-0.06,0.04-0.1c0.1-0.23,0.2-0.46,0.28-0.71c0.02-0.07,0.04-0.13,0.06-0.2
		c0-0.01,0.01-0.03,0.01-0.04c0.02-0.05,0.02-0.1,0.04-0.14c0.08-0.28,0.16-0.57,0.22-0.85c0.02-0.09,0.03-0.19,0.05-0.28
		c0.05-0.25,0.09-0.5,0.12-0.75c0.01-0.13,0.02-0.26,0.03-0.39c0.01-0.21,0.03-0.42,0.03-0.63
		C447.93,234.83,447.92,234.67,447.92,234.5z"/>
	<path style="fill:#6600FF;" d="M85.39,352.11c0.4,0,0.79-0.03,1.18-0.07c0.1-0.01,0.19-0.03,0.29-0.04
		c0.3-0.04,0.59-0.09,0.88-0.15c0.11-0.02,0.21-0.05,0.32-0.08c0.28-0.07,0.55-0.15,0.82-0.24c0.11-0.04,0.21-0.08,0.31-0.12
		c0.27-0.1,0.54-0.22,0.79-0.34c0.06-0.03,0.12-0.05,0.18-0.08c0.04-0.02,0.07-0.04,0.11-0.06c0.2-0.1,0.39-0.22,0.58-0.33
		c0.12-0.07,0.24-0.14,0.36-0.22c0.15-0.1,0.3-0.21,0.45-0.32c0.14-0.1,0.29-0.21,0.42-0.32c0.11-0.09,0.21-0.19,0.32-0.28
		c0.16-0.14,0.32-0.28,0.46-0.42c0.08-0.08,0.16-0.17,0.24-0.26c0.16-0.16,0.31-0.33,0.45-0.5c0.08-0.1,0.15-0.2,0.23-0.3
		c0.13-0.17,0.26-0.34,0.38-0.51c0.09-0.13,0.17-0.27,0.25-0.41c0.09-0.15,0.19-0.3,0.27-0.45c0.1-0.17,0.18-0.35,0.27-0.53
		c0.06-0.13,0.13-0.25,0.18-0.38c0.08-0.19,0.16-0.39,0.23-0.59c0.05-0.12,0.1-0.25,0.14-0.37c0.06-0.19,0.11-0.38,0.16-0.57
		c0.04-0.15,0.08-0.3,0.12-0.45c0.03-0.16,0.06-0.32,0.09-0.48c0.03-0.19,0.07-0.39,0.09-0.58c0.01-0.13,0.02-0.26,0.03-0.38
		c0.02-0.23,0.03-0.47,0.04-0.71c0-0.04,0.01-0.08,0.01-0.12c0-0.06-0.01-0.12-0.01-0.18c0-0.3-0.02-0.6-0.05-0.9
		c-0.01-0.1-0.02-0.2-0.03-0.3c-0.04-0.3-0.09-0.59-0.16-0.89c-0.02-0.09-0.04-0.19-0.06-0.28c-0.08-0.31-0.17-0.62-0.27-0.92
		c-0.02-0.07-0.04-0.14-0.07-0.21c-0.14-0.37-0.29-0.74-0.47-1.1c-4.54-8.53-7.76-17.7-9.53-27.2c0-5.89-4.77-10.66-10.66-10.66
		c-2.94,0-5.61,1.19-7.54,3.12c-1.93,1.93-3.12,4.59-3.12,7.54c0.06,0.46,0.15,0.91,0.21,1.36c1.8,12.37,5.69,24.34,11.56,35.39
		C77.65,349.84,81.35,352.11,85.39,352.11z"/>
	<path style="fill:#6600FF;" d="M140.97,42.8c0.03-0.01,0.05-0.01,0.08-0.02c0.06-0.02,0.11-0.03,0.17-0.05
		c0.62-0.15,1.23-0.35,1.84-0.61c4.86-2.26,9.02-4.37,12.94-6.4c15.93-8.17,27.46-14.07,78.62-14.07
		c34.54-1.89,69.09,3.65,101.31,16.25c4.07,1.49,8.21,3.03,12.47,4.5c1.12,0.38,2.29,0.58,3.48,0.58c4.7,0.09,8.91-2.92,10.35-7.4
		c1.8-5.61-1.29-11.61-6.89-13.41c-4.14-1.34-8.06-2.81-11.98-4.26C308.78,4.44,271.75-1.54,234.69,0.34c-0.02,0-0.05,0-0.07,0
		c-56.37,0-70.48,7.25-88.39,16.44c-3.6,1.85-7.44,3.82-11.92,5.82c-5.47,2.17-8.14,8.37-5.97,13.84
		C130.36,41.51,135.83,44.17,140.97,42.8z"/>
	<path style="fill:#6600FF;" d="M426.98,184.79c0.05,0.13,0.11,0.25,0.16,0.37c1.52,4.21,5.51,7.04,10.01,7.04
		c1.1,0,2.19-0.17,3.23-0.5c5.61-1.79,8.7-7.79,6.91-13.4c-6.04-15.66-13.54-30.72-22.39-44.98c-3.08-5.02-9.65-6.58-14.67-3.5
		c-2.52,1.55-4.17,3.98-4.79,6.65c-0.65,2.67-0.27,5.58,1.28,8.1C414.67,157.36,421.45,170.81,426.98,184.79z"/>
	<path style="fill:#6600FF;" d="M391.36,408.52C391.36,408.52,391.36,408.52,391.36,408.52c-7.28-6.59-14.91-12.77-22.83-18.55
		c-0.58-0.42-1.15-0.86-1.73-1.28c-36.07-27.37-96.36-73.17-111.29-124.8c-0.03-0.12-0.07-0.24-0.1-0.36
		c-1.72-5.63-7.68-8.8-13.31-7.07c-5.42,1.66-8.55,7.25-7.23,12.69c0.04,0.21,0.08,0.41,0.13,0.62
		c16.8,58.46,80.71,106.94,118.9,135.91c6.53,4.7,12.85,9.7,18.95,14.94c1.15,0.99,2.32,1.98,3.45,2.99c2,2,4.72,3.12,7.55,3.11
		c2.81-0.01,5.51-1.12,7.5-3.11c4.17-4.16,4.18-10.91,0.02-15.08C391.38,408.53,391.37,408.53,391.36,408.52z"/>
	<path style="fill:#6600FF;" d="M309.24,462.88c-8.39-15.54-22.25-27.14-38.61-32.79c-4.71-1.63-9.63-2.78-14.69-3.37
		c-17.56,0-27.92,14.46-34.04,30.77c-6.22,16.57-8.04,35.04-8.54,42.24c-0.02,0.34-0.05,0.66-0.06,0.95
		c-0.02,0.37-0.03,0.73-0.01,1.09c0.2,5.41,4.48,9.88,9.99,10.23h0.68c5.64,0.01,10.31-4.37,10.66-10
		c1.32-21.61,9.49-52.87,20.75-53.91c0.19-0.02,0.38-0.05,0.57-0.05c0.24,0,0.47,0.01,0.71,0.02c15.42,0.45,26.44,15.39,35.3,27.42
		c2.97,4.24,6.23,8.27,9.74,12.07c1.06,1.02,2.28,1.78,3.57,2.28c3.78,1.5,8.24,0.76,11.35-2.24c4.23-4.09,4.35-10.84,0.26-15.07
		C314.11,469.48,311.56,466.26,309.24,462.88z"/>
	<path style="fill:#6600FF;" d="M79.99,127.22c4.99,2.79,11.24,1.13,14.23-3.66c0.09-0.14,0.19-0.27,0.28-0.41
		c0.01-0.01,0.01-0.02,0.02-0.03c6.65-10.97,32.07-36.56,77.5-50.08c0.99-0.29,1.98-0.58,2.99-0.86c17.11-4.8,36.96-7.87,59.62-7.87
		c81.95,0,140.26,41.51,150.77,58.82c0.22,0.36,0.47,0.71,0.72,1.03c0.08,0.1,0.16,0.2,0.25,0.29c0.19,0.23,0.39,0.45,0.6,0.66
		c0.1,0.1,0.19,0.19,0.29,0.28c0.23,0.21,0.47,0.41,0.71,0.6c0.08,0.06,0.16,0.13,0.24,0.19c0.32,0.23,0.65,0.45,0.99,0.64
		c0.12,0.07,0.25,0.13,0.38,0.2c0.23,0.12,0.45,0.23,0.69,0.33c0.17,0.07,0.34,0.14,0.51,0.2c0.21,0.08,0.41,0.14,0.62,0.21
		c0.18,0.06,0.36,0.11,0.54,0.16c0.35,0.09,0.7,0.16,1.05,0.21c0.19,0.03,0.38,0.04,0.57,0.06c0.22,0.02,0.44,0.04,0.65,0.04
		c0.1,0,0.2,0.02,0.3,0.02c0.09,0,0.18-0.02,0.28-0.02c0.27-0.01,0.55-0.03,0.82-0.06c0.15-0.02,0.29-0.02,0.44-0.04
		c0.39-0.06,0.77-0.14,1.16-0.24c0.16-0.04,0.32-0.09,0.48-0.14c0.25-0.08,0.5-0.17,0.75-0.27c0.16-0.06,0.32-0.13,0.48-0.2
		c0.28-0.13,0.56-0.28,0.84-0.43c0.09-0.05,0.18-0.09,0.27-0.14c1.58-0.96,2.82-2.25,3.69-3.74c0.12-0.21,0.23-0.43,0.34-0.65
		c0.04-0.08,0.09-0.17,0.13-0.25c1.44-3.11,1.35-6.86-0.56-10.01c-11.54-19.01-54.19-51.03-115.8-63.69
		c-16.46-3.38-34.27-5.39-53.2-5.39c0,0,0,0,0,0c0,0,0,0,0,0c-20.6,0-39.14,2.33-55.67,6.16c-0.23,0.05-0.46,0.1-0.69,0.16
		c-1.91,0.45-3.79,0.93-5.64,1.41c-0.46,0.12-0.93,0.24-1.39,0.36c-0.04,0.01-0.07,0.02-0.11,0.03
		c-37.91,10.27-64.39,28.41-80.07,43.43c-7.14,6.84-12.06,13.03-14.79,17.54c-0.03,0.04-0.05,0.09-0.07,0.13
		c-0.11,0.17-0.21,0.34-0.31,0.51C73.01,117.85,74.85,124.35,79.99,127.22z"/>
</g>
</svg>
