<?xml version="1.0" encoding="utf-8"?>
<!-- Generator: Adobe Illustrator 26.5.0, SVG Export Plug-In . SVG Version: 6.00 Build 0)  -->
<svg version="1.1" id="Capa_1" xmlns="http://www.w3.org/2000/svg" xmlns:xlink="http://www.w3.org/1999/xlink" x="0px" y="0px"
	 viewBox="0 0 512 512" style="enable-background:new 0 0 512 512;" xml:space="preserve">
<g>
	<path style="fill:#FFFFFF;" d="M436.46,0c-25.67-0.07-50.3,10.14-68.39,28.35l-168.7,168.66c-27.19-7.06-55.78-6.71-82.79,1.02
		C47.71,217.51,0.15,280.34,0.1,351.9C0.05,440.26,71.64,511.94,160,512c5.59-0.01,11.17-0.3,16.73-0.87
		c65.03-7.08,119.27-52.89,137.13-115.82c7.76-27,8.11-55.59,1-82.77l13.87-13.87c8.03-7.98,12.53-18.84,12.5-30.17v-33.83h21.33
		c23.56,0,42.67-19.1,42.67-42.67v-21.33h33.83c11.31-0.03,22.14-4.51,30.17-12.48l14.34-14.34c18.2-18.11,28.4-42.74,28.33-68.42
		C511.86,33.79,478.11,0.04,436.46,0z M453.4,113.66L439.06,128h-33.83c-23.56,0-42.67,19.1-42.67,42.67V192h-21.33
		c-23.56,0-42.67,19.1-42.67,42.67v33.83l-22.78,22.81c-5.78,5.78-7.76,14.36-5.08,22.08c8.04,22.67,8.79,47.29,2.13,70.4
		c-14.25,50.63-60.46,85.6-113.06,85.55c-64.8-0.06-117.28-52.65-117.22-117.45c0.06-64.78,52.61-117.24,117.38-117.22
		c13.1,0.03,26.11,2.26,38.47,6.61c7.73,2.69,16.31,0.73,22.1-5.06L398.23,58.52c10.12-10.18,23.9-15.89,38.25-15.85
		c18.08,0.02,32.73,14.68,32.75,32.77C469.27,89.78,463.57,103.54,453.4,113.66z"/>
	<circle style="fill:#FFFFFF;" cx="127.9" cy="384" r="21.33"/>
</g>
</svg>
