<?xml version="1.0" encoding="utf-8"?>
<!-- Generator: Adobe Illustrator 26.5.0, SVG Export Plug-In . SVG Version: 6.00 Build 0)  -->
<svg version="1.1" id="Capa_1" xmlns="http://www.w3.org/2000/svg" xmlns:xlink="http://www.w3.org/1999/xlink" x="0px" y="0px"
	 viewBox="0 0 1000 308.69" style="enable-background:new 0 0 1000 308.69;" xml:space="preserve">
<g>
	<g>
		<path style="fill:#FFFFFF;" d="M426.16,33.71c-61.24,0-102.38,41.01-102.38,102.04c0,60.08,41.26,102.04,100.34,102.04
			c27.02,0,49.6-9.02,65.29-25.75v22.36h38.79v-98.65C528.2,74.71,487.19,33.71,426.16,33.71z M426.16,72.5
			c38.22,0,62.91,24.83,62.91,63.25s-24.69,63.25-62.91,63.25c-38.63,0-63.59-24.83-63.59-63.25S387.53,72.5,426.16,72.5z"/>
		<g>
			<path style="fill:#FFFFFF;" d="M805.21,157.98L848.4,35.39l-0.6-1.69h-40.91l1.22,3.39h-0.26l-48.71,133.94L710.04,33.71h-22.99
				h-17.91h-9.81c-61.03,0-102.04,41.01-102.04,102.04v98.65h38.79v-98.65c0-38.42,24.83-63.25,63.25-63.25h23.76l56.08,155.91
				l-24.2,67.75h40.89L805.21,157.98L805.21,157.98z"/>
			<polygon style="fill:#FFFFFF;" points="945.62,37.1 896.91,171.04 859.58,66.64 840.03,125.82 876.93,228.41 852.73,296.16 
				893.62,296.16 986.14,37.1 			"/>
		</g>
	</g>
	<g>
		<path style="fill:#FFFFFF;" d="M105.7,136.85c0-17.94,14.54-32.48,32.48-32.48s32.48,14.54,32.48,32.48s-14.54,32.48-32.48,32.48
			S105.7,154.79,105.7,136.85z"/>
		<circle style="fill:#FFFFFF;" cx="61.47" cy="60.15" r="17.35"/>
		<circle style="fill:#FFFFFF;" cx="138.18" cy="45.01" r="32.48"/>
		<circle style="fill:#FFFFFF;" cx="138.18" cy="228.69" r="32.48"/>
		<circle style="fill:#FFFFFF;" cx="46.34" cy="136.85" r="32.48"/>
		<circle style="fill:#FFFFFF;" cx="230.02" cy="136.85" r="32.48"/>
		<g>
			<circle style="fill:#FFFFFF;" cx="212.67" cy="211.35" r="17.35"/>
		</g>
	</g>
</g>
</svg>
