<?xml version="1.0" encoding="utf-8"?>
<!-- Generator: Adobe Illustrator 26.5.0, SVG Export Plug-In . SVG Version: 6.00 Build 0)  -->
<svg version="1.1" id="Capa_1" xmlns="http://www.w3.org/2000/svg" xmlns:xlink="http://www.w3.org/1999/xlink" x="0px" y="0px"
	 viewBox="0 0 1000 1000" style="enable-background:new 0 0 1000 1000;" xml:space="preserve">
<g>
	<linearGradient id="SVGID_1_" gradientUnits="userSpaceOnUse" x1="550.3674" y1="447.7816" x2="590.55" y2="447.7816">
		<stop  offset="7.736853e-03" style="stop-color:#FFAD04"/>
		<stop  offset="1" style="stop-color:#FF9900"/>
	</linearGradient>
	<ellipse style="fill:url(#SVGID_1_);" cx="570.46" cy="447.78" rx="20.09" ry="19.69"/>
	
		<linearGradient id="SVGID_00000068656642009979990990000014422052240775625861_" gradientUnits="userSpaceOnUse" x1="409.7076" y1="394.1896" x2="590.55" y2="394.1896">
		<stop  offset="0" style="stop-color:#FFAD04"/>
		<stop  offset="1" style="stop-color:#FF9900"/>
	</linearGradient>
	<path style="fill:url(#SVGID_00000068656642009979990990000014422052240775625861_);" d="M590.49,326.44
		c-0.19-2.8-0.88-5.54-2.17-8.12c-6.98-13.96-23.67-12.42-35.74-3.36l-64.65,45.53c-2.99,2.11-6.95,2.25-10.09,0.37l-38.69-23.16
		c-8.25-4.66-18.39-2.56-24.46,5.07h0c-3.35,4.22-5.12,9.63-4.97,15.18c0,0,3.2,115.8,3.2,116.73c0.01,4.33,2.72,6.14,5.69,5.58
		c1.14-0.21,2.31-0.78,3.38-1.67c3.03-2.54,5.22-7.01,5.54-11.14c0.45-5.89,4.96-76.17,6.3-96.9c0.14-2.25,2.81-3.35,4.5-1.85
		l28.57,25.31c5.47,4.85,12.94,6.12,19.53,3.33l59.38-28.23c2.12-1.01,4.57,0.54,4.57,2.89v22.91c0,11.1,9,20.09,20.09,20.09l0,0
		c11.1,0,20.09-9,20.09-20.09v-68.48L590.49,326.44z"/>
</g>
<g>
	<path style="fill:#3D3C3E;" d="M118.3,587.52h21.04l30.18,64.33l30.64-64.33h21.19v100.61h-20.12v-60.52l-25,60.52H162.5
		l-24.08-60.06v60.06H118.3V587.52z"/>
	<path style="fill:#3D3C3E;" d="M270.73,609.32c21.04,0,37.96,13.87,40.24,36.13c0.3,2.59,0.3,5.64,0,8.23h-61.89
		c1.52,11.28,10.82,18.75,21.49,18.9c8.08,0,16.16-3.35,19.97-10.37l15.4,8.08c-6.86,12.04-20.12,19.36-35.21,19.36
		c-21.49,0-41.46-15.4-41.46-39.94C229.27,623.04,249.09,609.32,270.73,609.32z M270.73,626.39c-8.99,0-18.14,5.64-19.97,15.85h40.4
		C289.03,631.88,279.88,626.24,270.73,626.39z"/>
	<path style="fill:#3D3C3E;" d="M361.28,689.65c-21.34,0-41-15.4-41-39.94c0-26.68,19.51-40.39,41-40.39
		c20.12,0,35.52,11.28,39.33,30.33h-18.14c-2.9-8.23-10.52-13.26-21.19-13.11c-12.04,0.15-21.8,8.69-21.8,23.17
		c0,12.8,9.91,22.56,21.8,22.56c10.82,0.15,19.05-5.33,21.49-14.02h17.99C397.26,676.69,381.4,689.65,361.28,689.65z"/>
	<path style="fill:#3D3C3E;" d="M409.91,667.09c-0.61-15.85,9.91-24.08,27.29-25.61c6.86-0.61,16.16-0.76,22.56-0.76
		c-0.15-8.54-3.96-15.55-14.48-15.55c-7.32,0-14.18,4.12-15.4,11.74h-18.29c1.83-19.05,17.68-27.44,33.54-27.59
		c22.71-0.15,34.76,13.87,34.76,38.26v40.55h-20.12v-14.18c-3.35,7.62-9.91,14.33-21.19,15.55
		C423.32,691.18,410.52,682.03,409.91,667.09z M445.73,673.65c8.69-1.98,14.18-9.91,14.02-20.58c-5.03-0.46-11.13-0.46-16.46,0
		c-7.93,0.76-14.02,3.96-13.72,11.59C429.88,672.73,438.26,675.32,445.73,673.65z"/>
	<path style="fill:#3D3C3E;" d="M489.02,587.52h20.12v36.74c6.4-10.52,15.24-14.79,25.61-14.94c20.73-0.46,32.93,13.87,32.93,38.41
		v40.4h-20.12v-36.74c0-15.55-5.64-24.69-19.21-24.69c-12.65,0-19.21,8.84-19.21,24.85v36.58h-20.12V587.52z"/>
	<path style="fill:#FF9D0A;" d="M574.24,656.12h19.36c0.92,12.2,11.28,16.16,19.82,16.31c9.3,0.15,17.83-3.05,18.14-12.35
		c0.15-9.3-7.77-13.11-20.88-14.94c-21.95-2.74-36.89-11.28-36.89-30.18c0-18.14,16.46-28.96,35.67-28.96
		c20.12,0,38.57,12.04,39.33,32.62h-19.36c-0.92-11.89-10.37-15.85-19.97-15.85c-8.99,0-16.31,4.88-16.31,12.65
		c-0.15,7.32,6.4,11.89,19.82,14.02c24.69,3.51,38.41,11.89,37.65,32.47c-0.61,19.51-18.6,28.2-37.65,27.74
		C592.99,689.19,575.31,677,574.24,656.12z"/>
	<path style="fill:#FF9D0A;" d="M659.15,649.87c-0.15-24.85,17.99-40.55,42.22-40.55c24.54,0,42.68,15.7,42.38,40.55
		c-0.15,23.63-17.07,39.79-42.38,39.79C678.05,689.65,659.3,673.8,659.15,649.87z M701.22,672.43c12.19,0,22.56-9.6,22.56-22.71
		c0-14.18-10.37-23.17-22.56-23.17c-12.04,0-21.95,9.15-21.95,23.17C679.27,662.82,689.18,672.43,701.22,672.43z"/>
	<path style="fill:#FF9D0A;" d="M784.3,618.16v6.25h21.34v17.22h-21.19l-0.15,46.49h-20.12v-46.49h-13.57v-17.22h13.57v-7.01
		c0-28.05,27.44-36.58,48.02-28.2l-3.2,16.01C796.49,600.02,784.3,605.35,784.3,618.16z"/>
	<path style="fill:#FF9D0A;" d="M833.69,658.55v-31.4h-13.57v-17.22h13.57v-22.41h20.12l0.15,22.41h22.1v17.22h-22.25v30.64
		c0,12.96,12.35,18.14,24.85,12.96l3.05,15.85C861.12,695.14,833.69,686.6,833.69,658.55z"/>
</g>
</svg>
