<?xml version="1.0" encoding="utf-8"?>
<!-- Generator: Adobe Illustrator 26.5.0, SVG Export Plug-In . SVG Version: 6.00 Build 0)  -->
<svg version="1.1" id="Capa_1" xmlns="http://www.w3.org/2000/svg" xmlns:xlink="http://www.w3.org/1999/xlink" x="0px" y="0px"
	 viewBox="0 0 512 512" style="enable-background:new 0 0 512 512;" xml:space="preserve">
<g>
	<path style="fill:#7900FF;" d="M456.02,419.67L456.02,419.67l0-372.82c0-5.07-3.77-9.35-8.81-9.97L152.86,0.08
		c-6-0.75-11.3,3.93-11.3,9.97v24.54H66.04c-5.55,0-10.05,4.5-10.05,10.05v375.02c-14.77,0-26.74,11.97-26.74,26.74v4.26
		c0,14.77,11.97,26.74,26.74,26.74h85.57v24.54c0,6.05,5.3,10.72,11.3,9.97l276.09-34.51h27.07c14.77,0,26.74-11.97,26.74-26.74
		v-4.26C482.76,431.64,470.79,419.67,456.02,419.67z M141.56,419.67h-27.83V92.33h27.83V419.67z M398.28,423.05L199.3,447.92V64.08
		l198.98,24.87V423.05z"/>
	<path style="fill:#7900FF;" d="M230.41,299.94l37.64-3.37c5.18-0.46,9.16-4.81,9.16-10.01v-61.01c0-5.2-3.96-9.54-9.13-10.01
		l-37.64-3.45c-5.89-0.54-10.97,4.1-10.97,10.01v67.83C219.46,295.83,224.52,300.46,230.41,299.94z"/>
</g>
</svg>
