<?xml version="1.0" encoding="utf-8"?>
<!-- Generator: Adobe Illustrator 26.5.0, SVG Export Plug-In . SVG Version: 6.00 Build 0)  -->
<svg version="1.1" id="Capa_1" xmlns="http://www.w3.org/2000/svg" xmlns:xlink="http://www.w3.org/1999/xlink" x="0px" y="0px"
	 viewBox="0 0 512 512" style="enable-background:new 0 0 512 512;" xml:space="preserve">
<path style="fill:#FFFFFF;" d="M293.72,20.05c-20.83-20.83-54.59-20.84-75.42-0.01c0,0-0.01,0.01-0.01,0.01L0,238.35v205.23
	c0,35.35,28.65,64,64,64h384c35.35,0,64-28.65,64-64V238.35L293.72,20.05z M448,443.58H341.33V375.7
	c0-44.98-36.47-81.45-81.45-81.45h-7.77c-44.98,0-81.45,36.47-81.45,81.45v67.88H64V264.85l192-192l192,192V443.58z"/>
</svg>
