<?xml version="1.0" encoding="utf-8"?>
<!-- Generator: Adobe Illustrator 26.5.0, SVG Export Plug-In . SVG Version: 6.00 Build 0)  -->
<svg version="1.1" id="Capa_1" xmlns="http://www.w3.org/2000/svg" xmlns:xlink="http://www.w3.org/1999/xlink" x="0px" y="0px"
	 viewBox="0 0 512 512" style="enable-background:new 0 0 512 512;" xml:space="preserve">
<g>
	<path style="fill:#999999;" d="M405.33,85.33H394.5L347.9,24.92C335.74,9.26,317.04,0.07,297.22,0h-82.43
		c-19.83,0.07-38.52,9.26-50.69,24.92L117.5,85.33h-10.84C47.79,85.4,0.07,133.12,0,192v213.33C0.07,464.21,47.79,511.93,106.67,512
		h298.67c58.88-0.07,106.6-47.79,106.67-106.67V192C511.93,133.12,464.21,85.4,405.33,85.33z M197.89,50.99
		c4.05-5.23,10.28-8.3,16.9-8.32h82.43c6.61,0.03,12.84,3.1,16.9,8.32l26.5,34.35H171.39L197.89,50.99z M469.33,405.33
		c0,35.35-28.65,64-64,64H106.67c-35.35,0-64-28.65-64-64V192c0-35.35,28.65-64,64-64h298.67c35.35,0,64,28.65,64,64V405.33z"/>
	<path style="fill:#999999;" d="M256,170.67c-70.69,0-128,57.31-128,128s57.31,128,128,128s128-57.31,128-128
		C383.93,228,326.66,170.74,256,170.67z M256,384c-47.13,0-85.33-38.21-85.33-85.33s38.21-85.33,85.33-85.33
		s85.33,38.21,85.33,85.33S303.13,384,256,384z"/>
</g>
</svg>
