<?xml version="1.0" encoding="utf-8"?>
<!-- Generator: Adobe Illustrator 26.5.0, SVG Export Plug-In . SVG Version: 6.00 Build 0)  -->
<svg version="1.1" id="Capa_1" xmlns="http://www.w3.org/2000/svg" xmlns:xlink="http://www.w3.org/1999/xlink" x="0px" y="0px"
	 viewBox="0 0 512 512" style="enable-background:new 0 0 512 512;" xml:space="preserve">
<path style="fill:#FFFFFF;" d="M493.19,18.81C477.64,3.06,454.98-3.41,433.46,1.74L92.12,73.63c-58.31,8-99.09,61.75-91.1,120.05
	c3.16,23.05,13.78,44.43,30.23,60.88L67.9,291.2c4.01,4.01,6.26,9.44,6.25,15.1v67.59c0.05,9.5,2.23,18.87,6.4,27.41l-0.17,0.15
	l0.55,0.55c6.25,12.57,16.46,22.73,29.06,28.93l0.55,0.55l0.15-0.17c8.54,4.17,17.91,6.35,27.41,6.4h67.59
	c5.65,0,11.08,2.24,15.08,6.23l36.63,36.63c19.84,20.06,46.88,31.38,75.1,31.42c11.64-0.01,23.21-1.92,34.24-5.63
	c38.01-12.48,65.66-45.44,71.34-85.04l72-342.09C515.51,57.53,509.09,34.56,493.19,18.81z M98.11,261.07l-36.67-36.63
	c-17.43-17.01-23.44-42.58-15.4-65.58c7.79-23.6,28.63-40.49,53.33-43.22l337.95-71.15L116.78,365.07V306.3
	C116.84,289.34,110.12,273.05,98.11,261.07z M396.17,414.04c-4.87,35.01-37.19,59.45-72.2,54.58c-13.76-1.91-26.52-8.25-36.36-18.06
	l-36.69-36.69c-11.96-12.03-28.24-18.77-45.21-18.73h-58.77L467.51,74.66L396.17,414.04z"/>
</svg>
