<?xml version="1.0" encoding="utf-8"?>
<!-- Generator: Adobe Illustrator 26.5.0, SVG Export Plug-In . SVG Version: 6.00 Build 0)  -->
<svg version="1.1" id="Capa_1" xmlns="http://www.w3.org/2000/svg" xmlns:xlink="http://www.w3.org/1999/xlink" x="0px" y="0px"
	 viewBox="0 0 512 512" style="enable-background:new 0 0 512 512;" xml:space="preserve">
<path style="fill:#7900FF;" d="M503.13,225.92L448.11,74.67C431.7,29.89,389.13,0.08,341.44,0H170.5
	C122.87,0.16,80.38,29.95,64,74.67L8.87,225.92C3,242.08-0.01,259.15,0,276.35v58.2c0.13,43.33,24.98,82.78,64,101.61v33.17
	C64,492.9,83.1,512,106.67,512s42.67-19.1,42.67-42.67V448h213.33v21.33c0,23.56,19.1,42.67,42.67,42.67
	c23.56,0,42.67-19.1,42.67-42.67v-33.17c39.02-18.83,63.87-58.28,64-101.61v-58.2C512.01,259.15,509,242.08,503.13,225.92z
	 M124.01,96.55c7.15-19.51,25.7-32.5,46.49-32.55H341.5c20.78,0.05,39.33,13.04,46.49,32.55l50.2,138.11H73.81L124.01,96.55z
	 M448,334.55c-0.04,27.3-22.15,49.42-49.45,49.45h-285.1c-27.3-0.04-49.42-22.15-49.45-49.45v-35.88h42.67v10.67
	c0,17.67,14.33,32,32,32c17.67,0,32-14.33,32-32v-10.67h170.67v10.67c0,17.67,14.33,32,32,32s32-14.33,32-32v-10.67H448V334.55z"/>
</svg>
